<svg width="372" height="152" viewBox="0 0 372 152" fill="none" xmlns="http://www.w3.org/2000/svg">
<g clip-path="url(#clip0_74_236)">
<path d="M183.785 81.4113C183.517 81.1094 183.186 80.8696 182.816 80.7086C182.445 80.5475 182.044 80.4692 181.641 80.4788C180.15 80.4788 179.171 81.5051 179.171 82.8596C179.171 84.2114 180.196 85.1908 181.688 85.1908C182.481 85.1908 183.272 84.8183 183.785 84.2583V86.9646C182.947 87.1964 182.388 87.3371 181.641 87.3371C180.337 87.3371 179.124 86.9177 178.146 86.0763C177.666 85.691 177.282 85.1999 177.023 84.6414C176.765 84.083 176.638 83.4722 176.654 82.8569C176.654 81.643 177.12 80.523 178.005 79.6843C178.978 78.8057 180.236 78.309 181.547 78.2856C182.341 78.2856 183.038 78.4705 183.785 78.7519V81.4113ZM193.154 81.8306V78.5201H195.533V87.1026H193.154V83.6045H189.659V87.1026H187.236V78.5201H189.659V81.8306H193.154ZM201.451 85.6101L200.844 87.1026H198.281L201.823 78.5201H204.48L207.975 87.1026H205.412L204.805 85.6101H201.451ZM210.679 78.5201H213.102L217.531 83.7893H217.575V78.5201H220.001V87.1026H217.575L213.149 81.8775H213.102V87.1026H210.679V78.5201ZM223.543 78.5201H225.966L230.392 83.7893V78.5201H232.818V87.1026H230.392L225.966 81.8775V87.1026H223.543V78.5201ZM238.783 80.4319V81.8775H241.487V83.7424H238.783V85.2377H241.625V87.1026H236.36V78.5201H241.625V80.4319H238.783ZM247.545 85.2377H250.434V87.1026H245.12V78.5201H247.545V85.2377Z" fill="black"/>
<path d="M141.701 71.1489C141.748 71.1489 141.748 71.1489 141.748 71.1958L141.561 71.3365C141.561 71.3834 141.561 71.3834 141.607 71.3834H141.792C141.839 71.3834 141.839 71.4303 141.839 71.4772L141.558 71.709C141.511 71.7558 141.511 71.7558 141.558 71.8027H141.651C141.698 71.8027 141.745 71.8496 141.745 71.8965L141.792 72.4097C141.792 72.4566 141.839 72.4566 141.886 72.5035H142.026C142.073 72.5035 142.073 72.5504 142.073 72.5973L141.886 72.9228C141.839 72.9228 141.792 73.0166 141.745 73.0166L140.535 73.4359C140.488 73.4359 140.488 73.4359 140.488 73.389L141.095 72.9697C141.142 72.9228 141.142 72.8759 141.095 72.8759L140.767 72.9228C140.72 72.9228 140.72 72.8759 140.767 72.829L141.232 72.5035C141.282 72.4538 141.329 72.4097 141.329 72.3628L141.376 72.0814C141.423 72.0814 141.376 72.0345 141.329 72.0345H141.095C141.048 72.0345 141.001 71.9876 141.048 71.9407L141.373 71.3338C141.373 71.2869 141.467 71.24 141.514 71.24L141.701 71.1489Z" fill="#4D4D4D"/>
<path d="M140.582 72.222C140.582 72.1751 140.676 72.1282 140.723 72.1282L140.816 72.0813C140.863 72.0813 140.91 72.0813 140.91 72.1282V72.1751C140.957 72.1751 140.91 72.2689 140.863 72.2689L140.816 72.3158C140.77 72.3627 140.723 72.4096 140.723 72.4565L140.535 72.7848C140.533 72.809 140.523 72.8318 140.506 72.849C140.489 72.8662 140.466 72.8767 140.442 72.8786L139.882 73.1103C139.835 73.1103 139.835 73.1103 139.835 73.0634C139.882 73.0634 139.882 73.0165 139.882 73.0165C139.835 72.9696 139.835 72.9227 139.882 72.9227L140.114 72.7379C140.16 72.691 140.16 72.6441 140.114 72.6441C140.114 72.6441 140.067 72.5972 140.114 72.5972C140.16 72.5503 140.16 72.5034 140.16 72.5034C140.114 72.5034 140.16 72.4565 140.16 72.4565L140.582 72.222ZM148.785 67.3252C148.738 67.3252 148.785 67.2783 148.832 67.2783H149.066L149.579 67.4659C149.626 67.4659 149.626 67.5128 149.579 67.5128H149.019C148.973 67.5128 148.926 67.4659 148.879 67.4659L148.785 67.3252Z" fill="#4D4D4D"/>
<path d="M172.881 81.1297C172.741 81.0828 172.6 81.0359 172.462 80.9449C172.09 80.8042 171.715 81.0387 171.343 80.9449C170.877 80.5725 170.737 79.8248 170.365 79.4524C170.224 79.2179 169.758 79.2179 169.386 79.3117C169.014 79.5903 168.873 79.9628 168.733 80.4318C168.639 80.5725 168.267 80.4318 168.126 80.7132C167.986 81.4111 168.499 82.2994 168.126 83.0443H167.754C167.242 82.4374 165.704 82.6719 165.704 82.625V82.7188L166.076 83.4167V83.4636L165.982 84.1147C165.982 84.1616 165.982 84.2085 165.935 84.2085C165.888 84.2085 165.888 84.2085 165.888 84.1616L165.657 83.0415L165.563 83.6954L165.516 83.7422C165.469 83.7422 165.469 83.7422 165.422 83.6954L164.397 81.5491L163.465 79.2152V79.3559C163.512 79.4028 163.512 79.4028 163.465 79.4497L163.278 79.6814C163.278 79.7283 163.231 79.7283 163.184 79.6814L162.718 79.2621C162.718 79.2152 162.672 79.1683 162.672 79.1683C162.672 79.1214 162.718 79.0745 162.718 79.0745H162.625L162.346 78.7931L161.881 78.3737L160.996 78.7462C160.996 78.7462 160.949 78.7462 160.949 78.7931L159.924 78.8869L159.877 78.84L159.692 78.6551L159.739 78.84L159.833 79.1214L160.996 79.7752C161.043 79.7752 161.043 79.8221 161.043 79.869L160.902 80.8483L161.043 81.3615V81.4553L160.811 81.9684C160.811 82.0153 160.53 82.5753 160.53 82.5753C160.53 82.5753 160.53 82.6222 160.483 82.6222L160.064 82.9036L159.924 83.3698V83.4167L158.992 84.3961L157.316 85.4692H157.269L157.363 85.6541C157.363 85.6541 157.363 85.7479 157.316 85.7479L157.269 85.7948C157.316 85.7948 157.316 85.8417 157.316 85.8417L157.735 86.1203L159.786 84.9092H159.879C159.926 84.9092 159.926 84.9561 159.926 84.9561L160.067 85.563C160.067 85.6099 160.02 85.6568 159.973 85.7037L159.926 85.7506L159.786 86.5451V86.592L159.132 88.5038V88.5507L157.082 91.304L156.288 92.5178L156.335 93.2654L156.569 94.1979V94.2448L156.382 95.6903C156.382 95.6903 156.382 95.7372 156.335 95.7372L154.565 97.2766L154.331 98.1153L154.284 98.1622L153.443 98.7691L153.259 99.0974C153.212 99.0974 153.212 99.0974 153.212 99.1443L151.536 100.124H151.489L150.836 100.264L149.019 100.358H148.926L148.741 100.124C148.694 100.124 148.694 100.124 148.741 100.077L148.788 99.936L148.228 99.4698L147.809 99.2822C147.809 99.2353 147.762 99.2353 147.762 99.2353L147.297 98.3498L146.178 97.3704C146.178 97.3235 146.131 97.3235 146.131 97.3235L146.084 97.1359V96.2504V96.2035L146.409 95.5524L145.618 94.1537V94.1068L145.431 93.7813C145.337 93.7344 145.012 93.453 145.012 93.453L144.218 92.7468C144.218 92.7468 144.218 92.6999 144.171 92.6999L143.939 92.3274V92.2336L144.08 91.6267L143.939 90.6474L143.52 90.366L142.773 90.5508C142.773 90.5508 142.727 90.5039 142.68 90.5039L141.933 89.6625H141.189C141.142 89.6625 141.001 89.7094 141.001 89.7094L140.069 90.0818H140.023L139.651 89.8942L138.44 89.9411C138.44 89.9411 138.394 89.9411 138.394 89.8942L137.225 88.8294L136.853 88.4569C136.853 88.4569 136.853 88.41 136.806 88.41L136.712 87.9438L136.246 87.2458V87.199L136.153 86.9672L135.872 86.6389L135.825 86.592V86.3603L135.872 86.2196L135.64 85.7534V85.6596L135.827 85.2871L135.874 84.1202L135.827 83.5133V83.4664L136.478 81.6456L136.525 81.5987L136.897 81.0387V80.9918L137.644 80.338L138.016 79.2648C138.016 79.2648 138.016 79.2179 138.063 79.2179L138.716 78.611L138.995 78.051C138.995 78.0041 138.995 78.0041 139.041 78.0041L139.088 77.9572L138.995 77.7254L138.763 77.8192C138.763 77.8661 138.763 77.8661 138.716 77.8661L138.482 77.7723C138.435 77.7254 138.435 77.6785 138.435 77.6316L138.576 77.2123L138.482 77.1654C138.435 77.1654 138.435 77.1185 138.435 77.0716L138.854 76.0454L138.901 75.7171V75.6233L139.226 75.3915C139.226 75.3446 139.226 75.3446 139.273 75.3446L140.579 75.2508L140.905 74.6908L140.764 74.3184C140.717 74.2715 140.764 74.2246 140.764 74.2246L140.392 74.1308L140.345 74.0839V73.8991C140.345 73.8991 140.345 73.8522 140.392 73.8053L140.72 73.6646C140.72 73.6177 140.72 73.6177 140.767 73.6177H141.048V73.4301C141.048 73.4301 141.048 73.3832 141.095 73.3832C141.095 73.3363 141.142 73.3363 141.142 73.3363H141.561L142.12 72.8232C142.167 72.8232 142.167 72.7763 142.167 72.7763L142.308 72.6825L142.867 72.1693C142.867 72.1224 142.867 72.1224 142.914 72.1224L143.195 72.0286L143.336 71.9348C143.383 71.9348 143.429 71.8879 143.429 71.9348H143.476L143.523 71.7031L143.471 71.5679V71.5238L143.565 71.1955C143.565 71.1486 143.611 71.1486 143.611 71.1017L144.077 70.9141C144.077 70.8672 144.124 70.8672 144.171 70.9141L144.077 71.1486H144.171L144.218 71.1955H144.452V71.1486L144.218 70.6824C144.171 70.7293 144.171 70.7293 144.124 70.7293L143.565 71.0107C143.565 71.0576 143.518 71.0576 143.518 71.0107L143.192 70.9141H143.146C143.146 70.9141 143.146 70.8672 143.192 70.8672L143.286 70.7293H143.239V70.6355L143.286 70.3099C143.286 70.263 143.286 70.263 143.333 70.2161L143.799 69.8906L144.127 69.7499C144.127 69.703 144.127 69.703 144.174 69.6561L145.199 68.6768L145.522 68.4423H145.568L146.034 68.3043L146.453 68.0726C146.5 68.0257 146.5 68.0257 146.547 68.0257L147.06 68.1195L148.691 68.2602L148.738 68.3071V68.4009H148.691L148.973 68.354L148.551 68.0698C148.504 68.0698 148.504 68.023 148.504 68.023C148.551 67.9761 148.598 67.9761 148.645 67.9761H149.342L150.136 67.416H150.742L150.229 67.2753C150.183 67.2284 150.136 67.2284 150.136 67.1815L150.229 66.9967C150.229 66.9967 150.229 66.9498 150.276 66.9498C150.229 66.9498 150.183 66.9029 150.183 66.9029C150.229 66.856 150.229 66.856 150.276 66.856L150.648 66.8091L150.508 66.7622C150.038 66.8175 149.572 66.8958 149.11 66.9967C148.416 67.1221 147.731 67.2935 147.06 67.5098C145.667 67.9239 144.324 68.4872 143.052 69.1899C142.586 69.4685 142.073 69.7968 141.608 70.0755C140.997 70.4838 140.406 70.9202 139.835 71.3831C135.734 74.8343 132.939 79.8717 132.47 85.5161C132.423 86.123 132.423 86.6831 132.423 87.29C132.423 88.1755 132.47 89.1108 132.608 89.9963C133.255 94.9799 135.694 99.557 139.468 102.871C143.243 106.185 148.094 108.01 153.115 108.003C158.135 108.003 162.982 106.176 166.755 102.863C170.528 99.55 172.969 94.9771 173.623 89.9963C173.763 89.1108 173.807 88.1755 173.807 87.29C173.807 86.6831 173.807 86.123 173.76 85.5161C173.613 84.0284 173.319 82.5591 172.881 81.1297Z" fill="black"/>
<path d="M150.276 66.8589C150.229 66.8589 150.229 66.8589 150.182 66.9058C150.182 66.9058 150.229 66.9527 150.276 66.9527C150.229 66.9527 150.229 66.9996 150.229 66.9996L150.136 67.1844C150.136 67.2313 150.182 67.2313 150.229 67.2782L150.742 67.4189H150.136L149.342 67.9789H148.644C148.597 67.9789 148.551 67.9789 148.504 68.0258C148.504 68.0258 148.504 68.0727 148.551 68.0727L148.97 68.3541L148.688 68.401H148.735V68.3072L148.688 68.2603L147.057 68.1196L146.547 68.023C146.5 68.023 146.5 68.023 146.453 68.0699L146.034 68.3044L145.568 68.4424H145.521L145.196 68.6769L144.171 69.6562C144.124 69.7031 144.124 69.7031 144.124 69.75L143.799 69.8907L143.333 70.2162C143.286 70.2631 143.286 70.2631 143.286 70.31L143.239 70.6356V70.7294H143.286L143.192 70.8701C143.145 70.8701 143.145 70.917 143.145 70.917H143.192L143.517 71.0108C143.517 71.0577 143.564 71.0577 143.564 71.0108L144.124 70.7294C144.171 70.7294 144.171 70.7294 144.218 70.6825L144.449 71.1487V71.1956H144.218L144.171 71.1487H144.077L144.171 70.9142C144.124 70.8673 144.077 70.8673 144.077 70.9142L143.611 71.1018C143.611 71.1487 143.564 71.1487 143.564 71.1956L143.471 71.5239V71.5708L143.517 71.7115L143.471 71.9432H143.424C143.424 71.8963 143.377 71.9432 143.33 71.9432L143.189 72.037L142.908 72.1308C142.861 72.1308 142.861 72.1308 142.861 72.1777L142.302 72.6908L142.161 72.7846C142.161 72.7846 142.161 72.8315 142.115 72.8315L141.555 73.3447H141.142C141.142 73.3447 141.095 73.3447 141.095 73.3916C141.048 73.3916 141.048 73.4385 141.048 73.4385V73.626H140.767C140.72 73.626 140.72 73.626 140.72 73.6729L140.392 73.8136C140.345 73.8605 140.345 73.9074 140.345 73.9074V74.0923L140.392 74.1392L140.764 74.233C140.764 74.233 140.717 74.2799 140.764 74.3268L140.904 74.6992L140.579 75.2592L139.273 75.353C139.226 75.353 139.226 75.353 139.226 75.3999L138.903 75.6261V75.7199L138.856 76.0482L138.438 77.0745C138.438 77.1214 138.438 77.1683 138.484 77.1683L138.578 77.2152L138.438 77.6345C138.438 77.6814 138.438 77.7283 138.484 77.7752L138.719 77.869C138.766 77.869 138.766 77.869 138.766 77.8221L138.997 77.7283L139.091 77.96L139.044 78.0069C138.997 78.0069 138.997 78.0069 138.997 78.0538L138.719 78.6138L138.065 79.2208C138.019 79.2208 138.019 79.2677 138.019 79.2677L137.646 80.3408L136.899 80.9946V81.0415L136.527 81.6016L136.481 81.6485L135.83 83.4692V83.5161L135.877 84.123L135.83 85.29L135.643 85.6569V85.7507L135.874 86.2169L135.827 86.3576V86.5894L135.874 86.6363L136.155 86.9646L136.249 87.1963V87.2432L136.715 87.9411L136.809 88.4074C136.855 88.4074 136.855 88.4543 136.855 88.4543L137.227 88.8267L138.393 89.8999C138.393 89.9468 138.44 89.9468 138.44 89.9468L139.65 89.8999L140.022 90.0874H140.069L141.001 89.715C141.001 89.715 141.142 89.6681 141.188 89.6681H141.933L142.68 90.5095C142.726 90.5095 142.773 90.5564 142.773 90.5564L143.52 90.3716L143.939 90.653L144.08 91.6323L143.939 92.2393V92.3331L144.171 92.7055C144.218 92.7055 144.218 92.7524 144.218 92.7524L145.011 93.4503C145.011 93.4503 145.337 93.7317 145.43 93.7786L145.618 94.1042V94.1511L146.409 95.5498L146.084 96.2008V97.1333L146.131 97.3209C146.131 97.3209 146.177 97.3209 146.177 97.3678L147.296 98.3471L147.762 99.2327C147.762 99.2327 147.809 99.2327 147.809 99.2796L148.228 99.4672L148.788 99.9334L148.741 100.074C148.694 100.121 148.694 100.121 148.741 100.121L148.925 100.355H149.019L150.836 100.262L151.489 100.121H151.536L153.212 99.1416C153.212 99.0947 153.212 99.0947 153.258 99.0947L153.443 98.7664L154.284 98.1595L154.331 98.1126L154.565 97.274L156.335 95.7346C156.381 95.7346 156.381 95.6877 156.381 95.6877L156.569 94.2421V94.1952L156.335 93.2628L156.288 92.5151L157.082 91.3013L159.132 88.5481V88.5012L159.786 86.5894V86.5425L159.926 85.7479L159.973 85.701C160.02 85.6542 160.067 85.6073 160.067 85.5604L159.926 84.9534C159.926 84.9534 159.926 84.9065 159.879 84.9065H159.786L157.735 86.1176L157.316 85.839C157.316 85.839 157.316 85.7921 157.269 85.7921L157.316 85.7452C157.363 85.7452 157.363 85.6514 157.363 85.6514L157.269 85.4666H157.316L158.992 84.3934L159.923 83.4141V83.3672L160.064 82.9009L160.483 82.6223C160.53 82.6223 160.53 82.5754 160.53 82.5754C160.53 82.5754 160.811 82.0154 160.811 81.9685L161.042 81.4553V81.3616L160.902 80.8484L161.042 79.8691C161.042 79.8222 161.042 79.7753 160.996 79.7753L159.832 79.1215L159.739 78.8401L159.692 78.6552L159.876 78.8401L159.923 78.887L160.949 78.7932C160.949 78.7463 160.996 78.7463 160.996 78.7463L161.88 78.3738L162.346 78.7932L162.625 79.0746H162.718C162.718 79.0746 162.671 79.1215 162.671 79.1684C162.671 79.1684 162.718 79.2153 162.718 79.2621L163.184 79.6815C163.231 79.7284 163.278 79.7284 163.278 79.6815L163.465 79.4497C163.512 79.4028 163.465 79.2153 163.465 79.2153L164.397 81.5491L165.422 83.6954C165.469 83.7423 165.469 83.7423 165.516 83.7423L165.563 83.6954L165.657 83.0416L165.888 84.1617C165.888 84.2086 165.888 84.2086 165.935 84.2086C165.982 84.2086 165.982 84.1617 165.982 84.1148L166.076 83.4637V83.4168L165.703 82.7189V82.6223C165.703 82.6692 167.241 82.4375 167.754 83.0416H168.126C168.498 82.294 167.986 81.4085 168.126 80.7105C168.267 80.4291 168.639 80.5698 168.733 80.4291C168.873 79.9629 169.014 79.5877 169.386 79.309C169.758 79.2153 170.224 79.2153 170.364 79.4497C170.737 79.8222 170.877 80.5698 171.343 80.9422C171.715 81.036 172.09 80.8015 172.462 80.9422C172.592 81.0238 172.733 81.0861 172.881 81.1271C171.486 76.5876 168.552 72.6779 164.584 70.0728C163.392 69.2576 162.109 68.5845 160.761 68.0672C160.235 67.8329 159.689 67.6455 159.13 67.5072C157.665 67.0348 156.146 66.7529 154.609 66.6685C154.328 66.6216 154.003 66.6216 153.724 66.6216C153.493 66.6216 153.305 66.5747 153.118 66.5747C152.233 66.5747 151.346 66.6685 150.508 66.7595L150.648 66.8064L150.276 66.8589Z" fill="white"/>
<path d="M148.507 68.8176L147.807 68.5831H148.413C148.46 68.5831 148.507 68.5831 148.507 68.5362L148.6 68.4424C148.573 68.5685 148.542 68.6936 148.507 68.8176ZM145.149 71.1487C145.196 71.1487 145.196 71.1018 145.243 71.1018L145.384 70.5887L145.756 70.2632V70.1694C145.756 70.1694 145.756 70.1225 145.709 70.1225L145.522 70.0287L145.475 69.75L146.081 69.3307C146.128 69.3307 146.128 69.2838 146.128 69.2838V69.0493L146.313 69.0024L146.453 69.0962L145.941 69.5624C145.894 69.5624 145.894 69.6093 145.894 69.6093L146.034 69.9818C146.034 70.0287 146.034 70.0287 146.081 70.0287L146.362 70.1694H146.456V70.2163L146.594 70.4011H146.641L146.687 70.5418L146.315 70.4949C146.291 70.4968 146.268 70.5073 146.251 70.5245C146.234 70.5417 146.224 70.5644 146.222 70.5887L146.128 70.9142C146.081 70.9142 146.081 70.9142 146.128 70.9142C146.128 70.9611 146.128 70.9611 146.081 70.9611L145.894 71.2425H145.475L144.775 71.6618L144.499 71.5239H144.449L144.499 71.4273H144.546L145.149 71.1487ZM139.51 77.8193L140.069 77.7255C140.116 77.7255 140.116 77.6786 140.116 77.6786L140.77 76.931C140.816 76.931 140.816 76.8841 140.816 76.8372L140.77 76.6524L141.701 75.7668L141.748 75.7199L141.842 75.3006L142.495 75.2537C142.495 75.2537 142.542 75.2537 142.542 75.2068L142.961 74.9282C142.914 74.9282 143.146 74.7875 143.242 74.7406L143.52 74.7875L143.755 75.2068C143.755 75.2068 143.755 75.2537 143.802 75.2537L145.014 75.8137L145.152 76.142L145.058 76.2358L144.546 76.8896C144.593 76.9365 144.777 77.0303 144.827 76.9834C144.874 76.9834 145.152 76.5172 145.152 76.5172V76.5641H145.246L145.293 76.5172L145.621 76.051V75.9572L145.433 75.7724L145.48 75.6786H145.899C145.993 75.6786 146.04 75.6317 146.04 75.5848C146.04 75.5379 146.04 75.491 145.993 75.491L145.293 75.2096V75.0689C145.291 75.0446 145.28 75.0219 145.263 75.0047C145.246 74.9875 145.223 74.977 145.199 74.9751H144.871L144.59 74.6027C144.59 74.6027 144.543 74.6026 144.543 74.5558L144.312 74.462L144.265 74.1806L144.452 74.1337L144.499 74.2744C144.499 74.2744 144.499 74.3213 144.546 74.3213H144.64L144.733 74.2275L145.105 74.6468L145.712 74.8785C145.712 74.8785 145.943 74.9723 146.084 75.0192V75.4385C146.084 75.4854 146.084 75.4854 146.131 75.4854L146.409 75.7172L146.781 76.1365H146.828L146.781 76.1834C146.781 76.2303 146.734 76.2772 146.781 76.3213L146.969 76.6027C146.969 76.6496 147.015 76.6496 147.015 76.6496L147.528 76.7434C147.575 76.7434 147.622 76.7434 147.622 76.6965C147.669 76.6496 147.669 76.6027 147.669 76.6027L147.531 76.3213H147.625C147.649 76.3194 147.672 76.309 147.689 76.2918C147.706 76.2746 147.716 76.2518 147.718 76.2275H147.859C147.906 76.1806 147.906 76.1337 147.906 76.0868L147.859 75.902C147.859 75.8551 147.859 75.8551 147.812 75.8551L147.534 75.7613C147.581 75.7144 147.627 75.6206 147.581 75.6206L147.534 75.4799C147.581 75.4799 147.627 75.433 147.627 75.433L147.812 75.0606H148.184L148.278 75.2013C148.278 75.2482 148.325 75.2482 148.325 75.2482V75.342C148.325 75.342 148.372 75.3889 148.418 75.3889H148.559L148.606 75.5296H148.512C148.465 75.5765 148.465 75.5765 148.465 75.6234L148.418 75.7641C148.418 75.811 148.465 75.8579 148.512 75.8579L148.744 75.9517L148.975 76.371C148.975 76.371 149.022 76.4179 149.069 76.4179H149.91C149.957 76.4179 150.003 76.4179 150.003 76.371L150.188 76.1862L150.888 76.3241H151.029L151.495 75.9517L151.82 75.9048L151.867 76.1862L152.054 76.5586L151.914 77.2124C151.914 77.2124 151.82 77.7255 151.773 77.9131L151.541 78.0538L150.657 77.96C150.61 77.96 150.61 78.0069 150.563 78.0069L150.003 78.3325L148.512 78.2387L146.974 78.0538C146.927 78.0538 146.88 78.0538 146.88 78.1007L146.552 78.429C146.506 78.4759 146.506 78.4759 146.506 78.5228V79.0359L146.315 79.1739L145.012 78.567H144.965L143.755 78.3821L143.424 78.1945L143.752 77.7283C143.752 77.7283 143.799 77.6814 143.752 77.6345L143.611 77.3531L143.752 77.0717V76.9338H143.611L143.518 77.0276L143.333 76.8869H143.239L142.958 77.0717L140.907 77.491H140.861L139.976 78.098L139.416 78.1449L139.276 78.0042L139.51 77.8193ZM148.879 74.4151L148.738 74.2744L148.923 73.9019L149.063 73.3419C149.063 73.3419 149.11 73.1571 149.11 73.0605L149.391 72.9198V73.0136C149.438 73.0605 149.485 73.0605 149.532 73.0605L149.81 73.0136L149.717 73.1074C149.67 73.1543 149.67 73.1543 149.67 73.2012L149.717 73.2481L150.276 73.4798C150.323 73.4798 150.37 73.4798 150.417 73.4329L150.695 73.2012L150.927 73.1543H151.02C151.252 73.2012 151.999 73.4329 151.999 73.4329L152.465 73.5736L152.696 73.9019L152.556 74.0426L151.949 74.1806L150.976 73.9461H150.93L150.323 74.0868C150.276 74.0868 150.276 74.1337 150.276 74.1337L149.81 74.5061H149.251C149.204 74.5061 149.157 74.553 149.157 74.553L148.879 74.4151ZM150.976 72.6412L151.164 72.735L150.976 72.8757H150.883L150.511 72.9667L150.976 72.6412Z" fill="black"/>
<path d="M150.322 73.2952L149.951 73.1545L150.088 73.0166L150.463 73.1545L150.322 73.2952Z" fill="white"/>
<path d="M152.652 79.3585L154.284 80.9448L154.981 82.2497L155.028 82.2966L155.725 82.7159L156.657 83.8801L157.123 85.2346L155.816 84.3932H155.723L155.116 83.367C155.069 83.367 155.069 83.3201 155.069 83.3201L154.603 83.0387L154.091 81.7311L154.044 81.6842L153.484 81.2648L151.993 79.3061L152.178 79.491C152.178 79.5379 152.225 79.5379 152.272 79.5379C152.318 79.491 152.365 79.491 152.365 79.4441V79.3503C152.412 79.3503 152.412 79.3972 152.459 79.3972L152.652 79.3585ZM159.504 78.564C159.504 78.564 159.457 78.6578 159.457 78.7047L159.223 79.5903L158.757 79.731L158.573 79.5461L158.291 78.9861C158.29 78.9619 158.279 78.9391 158.262 78.9219C158.245 78.9047 158.222 78.8942 158.198 78.8923C158.151 78.9392 158.104 78.9861 158.104 79.033L158.198 79.3144L157.079 78.1943L156.844 77.775L156.891 77.7281C156.938 77.7281 156.938 77.6812 156.938 77.6343V77.5405L157.216 77.6343L157.963 78.3819C157.963 78.4288 158.01 78.4288 158.01 78.4288L159.083 78.7544H159.176L159.457 78.4288L159.551 78.5226C159.504 78.5199 159.504 78.564 159.504 78.564Z" fill="black"/>
<path d="M142.958 76.5143C143.005 76.5143 143.005 76.5612 143.052 76.5612C143.052 76.5612 143.099 76.5612 143.099 76.5143L143.38 76.3267C143.427 76.2798 143.427 76.2798 143.427 76.2329L143.474 75.7667C143.474 75.7667 143.474 75.7198 143.427 75.7198L143.333 75.5791H143.38L143.427 75.0191C143.474 74.9722 143.427 74.9253 143.38 74.9253C143.38 74.9253 143.333 74.9253 143.286 74.9722L143.055 75.2536V75.3474L143.148 75.535L142.917 75.6757C142.87 75.7226 142.87 75.7695 142.87 75.7695L142.958 76.5143ZM159.223 93.8668C159.223 93.8199 159.176 93.8199 159.176 93.8199C159.13 93.8199 159.083 93.8668 159.083 93.8668L158.617 94.4268L158.57 94.4737V94.7551L157.917 95.1744L157.451 95.5C157.404 95.5 157.404 95.5 157.404 95.5469L157.173 95.9193C157.126 95.9193 157.126 95.9193 157.126 95.9662L157.173 96.4324L156.613 97.2242V97.2711L156.66 97.6435L156.941 97.7842H157.035L157.592 97.5056L157.873 97.2242L158.804 95.7317L159.27 94.9372V94.8903L159.364 94.0958V94.0489L159.223 93.8668Z" fill="white"/>
<path d="M154.193 91.6736C154.24 91.6736 154.24 91.6267 154.287 91.5798L154.38 91.4391C154.427 91.3922 154.427 91.3453 154.334 91.3922H154.284C154.237 91.4391 154.19 91.3922 154.143 91.3453V91.2984C154.143 91.2515 154.096 91.2515 154.096 91.2515C154.05 91.2515 154.003 91.2515 153.956 91.2984L153.396 91.486C153.35 91.486 153.303 91.5329 153.256 91.6267V91.8612C153.256 91.8612 153.256 91.955 153.303 92.0019V92.3274C153.303 92.3743 153.35 92.3743 153.396 92.3743V92.3274C153.443 92.2805 153.49 92.2805 153.537 92.3274L153.631 92.3743C153.678 92.4212 153.771 92.4212 153.815 92.3743L154.003 92.1867C154.05 92.1398 154.05 92.1398 153.956 92.0929C153.909 92.0929 153.909 92.046 153.956 91.9991L154.143 91.7674C154.193 91.7205 154.193 91.6736 154.193 91.6736ZM140.21 88.5948C140.163 88.5479 140.163 88.501 140.21 88.5479L140.491 88.6886C140.538 88.6886 140.538 88.7355 140.585 88.7824V89.3893C140.585 89.4362 140.538 89.4362 140.538 89.4362L140.306 89.2514C140.26 89.2514 140.26 89.2045 140.306 89.1576L140.4 89.1107C140.447 89.0638 140.447 89.0169 140.4 88.97L140.21 88.5948ZM154.518 95.0779C154.518 95.031 154.518 94.9841 154.471 94.9372L154.378 94.6585C154.378 94.6116 154.331 94.5647 154.284 94.5178H154.237C154.19 94.5178 154.19 94.5178 154.19 94.5647V94.6585L154.143 95.2186V95.3593L154.284 95.6848C154.331 95.7317 154.378 95.7786 154.424 95.7786C154.518 95.7786 154.518 95.7317 154.518 95.6848C154.471 95.6848 154.471 95.6379 154.471 95.591C154.424 95.591 154.424 95.5441 154.471 95.4972L154.518 95.0779ZM152.374 92.8874C152.327 92.8405 152.327 92.8405 152.327 92.8874L152.374 93.7261C152.374 93.773 152.421 93.8668 152.467 93.8668L152.795 94.2392C152.842 94.2392 152.889 94.2861 152.889 94.333V94.3799H153.03C153.077 94.3799 153.077 94.333 153.03 94.2861L152.889 94.0047L152.749 93.864L152.655 93.8171C152.608 93.7702 152.561 93.7233 152.561 93.6764L152.467 93.2102C152.467 93.1633 152.467 93.0695 152.421 93.0254L152.374 92.8874ZM158.154 71.0548C158.154 71.0079 158.154 70.961 158.201 70.961L158.573 70.9141C158.62 70.9141 158.62 70.9141 158.573 70.9141L158.292 71.0079C158.245 71.0079 158.245 71.0548 158.245 71.1017V71.1486C158.292 71.1955 158.339 71.2424 158.339 71.2865L158.57 71.4741C158.617 71.521 158.617 71.521 158.57 71.4741L158.289 71.3334C158.242 71.3334 158.195 71.2396 158.195 71.1927L158.154 71.0548ZM156.663 72.5031C156.687 72.5012 156.71 72.4907 156.727 72.4735C156.744 72.4563 156.754 72.4335 156.756 72.4093V72.1748C156.756 72.1279 156.71 72.0341 156.663 72.0341L156.382 71.8493C156.341 71.7921 156.309 71.7288 156.288 71.6617C156.241 71.6148 156.194 71.5679 156.147 71.6148C156.1 71.6148 156.194 71.7086 156.194 71.7086C156.241 71.7555 156.241 71.7555 156.147 71.7555C156.054 71.7555 156.054 71.8024 156.054 71.8493V72.081C156.054 72.1279 156.1 72.2217 156.147 72.2217L156.332 72.4534C156.379 72.5003 156.472 72.5472 156.519 72.5003L156.663 72.5031ZM156.754 74.5528C156.8 74.5997 156.847 74.6466 156.847 74.6935C156.894 74.6935 156.894 74.7404 156.941 74.7873C156.988 74.7873 156.988 74.8811 156.894 74.8811L156.569 75.0218H156.335L155.684 74.8811C155.637 74.8342 155.544 74.7873 155.544 74.7404L155.497 74.6935L155.403 74.5997C155.403 74.5528 155.356 74.5528 155.403 74.5528C155.403 74.5528 155.356 74.5059 155.356 74.459L155.262 74.0866C155.262 74.0397 155.262 73.9928 155.309 73.9459C155.356 73.9459 155.356 73.899 155.309 73.8521L154.656 73.5266C154.609 73.4797 154.515 73.4328 154.469 73.3859L154.05 73.0135C154.05 72.9666 153.956 72.9197 153.909 72.8728L153.722 72.8259C153.675 72.779 153.628 72.7321 153.628 72.6852L153.487 72.3127C153.487 72.2658 153.534 72.2658 153.581 72.2658L153.675 72.3127C153.722 72.3596 153.768 72.3127 153.813 72.2658C153.813 72.2189 153.766 72.172 153.766 72.172C153.719 72.1252 153.719 72.1252 153.766 72.0783L153.997 71.8934C154.044 71.8934 154.138 71.8465 154.185 71.8465H154.557L155.254 72.2189C155.301 72.2658 155.301 72.2658 155.207 72.3127L154.695 72.4065C154.648 72.4065 154.648 72.4534 154.695 72.5003C154.741 72.5472 154.741 72.5941 154.648 72.5941L154.554 72.641C154.507 72.641 154.507 72.6879 154.554 72.6879L154.926 72.9197C154.973 72.9666 155.064 73.0135 155.111 73.0135H155.298C155.345 73.0604 155.436 73.1073 155.483 73.1073V73.1542L155.624 73.2921L155.717 73.4328C155.764 73.4797 155.764 73.4797 155.764 73.4328V73.2921C155.764 73.2452 155.811 73.2452 155.858 73.2452L156.139 73.3859C156.186 73.4328 156.233 73.4797 156.233 73.5266C156.231 73.5508 156.22 73.5736 156.203 73.5908C156.186 73.608 156.163 73.6185 156.139 73.6204L155.907 73.5735C155.861 73.5266 155.861 73.5735 155.907 73.6204L156.754 74.5528Z" fill="black"/>
<path d="M148.41 76.8867C148.363 76.9336 148.272 76.9336 148.178 76.9336H147.9C147.853 76.8867 147.806 76.9336 147.76 76.9805C147.76 77.0274 147.806 77.0743 147.853 77.0743L148.6 77.0274C148.624 77.0255 148.647 77.015 148.664 76.9978C148.682 76.9806 148.692 76.9578 148.694 76.9336C148.694 76.9336 148.694 76.8867 148.6 76.8867H148.41ZM151.301 76.4205C151.348 76.3736 151.442 76.3267 151.489 76.2798C151.536 76.2798 151.536 76.2798 151.536 76.3267L151.489 76.4674C151.442 76.5143 151.395 76.6081 151.348 76.6081L151.255 76.7019C151.208 76.7019 151.114 76.7488 151.067 76.7019L150.976 76.6522C150.929 76.6522 150.929 76.6053 150.976 76.6053L151.301 76.4205Z" fill="white"/>
<path d="M119.096 44V72.2688H127.484C132.564 72.2688 134.755 70.0756 134.755 64.7126V51.65C134.755 46.287 132.564 44 127.487 44H119.096ZM136.202 47.6857V72.2688H138.812C139.138 71.9874 139.51 71.6619 139.838 71.3832C140.524 70.8094 141.274 70.2991 142.026 69.797V47.6857H136.202ZM157.36 55.4295V53.7963C157.36 49.2251 155.171 47.3132 150.182 47.3132C145.428 47.3132 143.099 49.4126 143.099 53.6583C143.099 57.3909 145.615 58.8337 149.435 61.8684C151.02 63.0353 151.674 63.7802 151.674 65.9265C151.674 66.1582 151.627 66.4396 151.627 66.6741C152.093 66.6272 152.605 66.5803 153.118 66.5803C153.305 66.5803 153.49 66.6272 153.724 66.6272C154.005 66.6272 154.331 66.6272 154.609 66.6741C155.637 66.7182 156.616 66.8589 157.592 67.0906C157.638 66.6244 157.638 66.1113 157.638 65.5982C157.638 62.147 156.379 59.9069 153.349 57.6668C150.973 55.8929 148.923 54.9605 148.923 53.3273C148.923 52.301 149.251 51.8348 150.182 51.8348C151.023 51.8348 151.536 52.3479 151.536 53.1425V55.4267L157.36 55.4295ZM174.513 55.195V64.8037C174.513 70.1666 176.098 72.6412 181.737 72.6412C187.424 72.6412 189.009 70.1694 189.009 64.8037V55.195C189.009 49.832 187.424 47.3132 181.737 47.3132C176.095 47.3132 174.513 49.8789 174.513 55.195ZM173.394 57.6696V55.195C173.394 49.832 171.809 47.3132 166.122 47.3132C160.483 47.3132 158.898 49.8789 158.898 55.195V64.8037C158.898 65.783 158.945 66.6686 159.085 67.4631C159.085 67.4631 159.132 67.4631 159.132 67.51C159.692 67.6507 160.251 67.8383 160.764 68.07C162.115 68.5831 163.421 69.2811 164.587 70.0756C165.706 70.8232 166.776 71.615 167.71 72.5943C172.09 72.1281 173.396 69.6563 173.396 64.8037V62.3346H167.479V65.6009C167.479 67.3251 167.432 68.1666 166.128 68.1666C164.868 68.1666 164.821 67.3748 164.821 65.6009V54.4032C164.821 52.6762 164.868 51.8376 166.128 51.8376C167.432 51.8376 167.479 52.6321 167.479 54.4032V57.6696H173.394ZM195.999 56.8281V47.6857H190.172V57.6696C190.172 64.0588 191.569 69.0052 194.042 72.2688H200.613C203.082 69.0025 204.483 64.0588 204.483 57.6696V47.6857H198.656V56.8281C198.656 61.3525 198.19 64.9443 197.349 67.6038C196.511 64.9443 195.999 61.3525 195.999 56.8281ZM219.767 60.9331V55.195C219.767 49.832 218.182 47.3132 212.495 47.3132C206.809 47.3132 205.271 49.8789 205.271 55.195V64.8037C205.271 70.1666 206.809 72.6412 212.495 72.6412C218.182 72.6412 219.767 70.1694 219.767 64.8037V62.3346H213.896V65.6009C213.896 67.2782 213.849 68.1666 212.498 68.1666C211.148 68.1666 211.101 67.3748 211.101 65.6009V60.9331H219.767ZM221.026 47.6857V72.2688H226.853V54.4032C226.853 52.6762 226.9 51.8376 228.157 51.8376C229.464 51.8376 229.51 52.6321 229.51 54.4032V59.4407H235.335V54.8694C235.335 49.9727 234.403 47.3601 230.302 47.3601C228.529 47.3601 227.366 48.0581 226.525 48.9933V47.6857H221.026ZM236.407 47.6857V56.5495C236.407 62.1939 237.57 66.9527 240.274 71.7088H236.407V75.16H245.541C249.874 68.5362 250.715 62.9829 250.715 56.5467V47.6857H244.888V56.7812C244.888 61.4932 244.376 65.5982 243.584 68.6769C242.744 65.4575 242.231 61.4463 242.231 56.7812V47.6857H236.407Z" fill="black"/>
<path d="M149.345 67.9762C148.879 67.6037 148.879 66.8561 148.879 65.5981V62.1938H143.052V65.2257C143.052 67.1844 143.283 68.7238 143.89 69.8438L144.124 69.75C144.124 69.7031 144.124 69.7031 144.171 69.6562L145.196 68.6769L145.521 68.4424H145.568L146.034 68.3045L146.453 68.0727C146.5 68.0258 146.5 68.0258 146.547 68.0258L147.06 68.1196L148.691 68.2603L148.738 68.3072V68.401H148.691L148.972 68.3541L148.551 68.07C148.504 68.07 148.504 68.0231 148.504 68.0231C148.551 67.9762 148.598 67.9762 148.644 67.9762H149.345Z" fill="black"/>
<path d="M203.176 81.1793H203.129L202.151 83.9298H204.155L203.176 81.1793ZM183.088 65.598C183.088 67.3222 183.041 68.1636 181.734 68.1636C180.475 68.1636 180.431 67.3718 180.431 65.598V54.403C180.431 52.676 180.478 51.8374 181.734 51.8374C183.041 51.8374 183.088 52.6319 183.088 54.403V65.598ZM211.098 54.5409C211.098 52.6291 211.145 51.8374 212.495 51.8374C213.846 51.8374 213.893 52.6319 213.893 54.5409V56.4086H211.095L211.098 54.5409ZM125.389 49.4097H126.414C128.324 49.4097 128.418 50.2042 128.418 52.0691V64.2903C128.418 66.2021 128.324 66.9497 126.414 66.9497H125.389V49.4097Z" fill="white"/>
<path d="M173.347 91.7209H250.619V98.2977H170.643C171.922 96.2809 172.837 94.0547 173.347 91.7209ZM119.002 91.7209H132.892C133.404 94.0989 134.336 96.2921 135.593 98.2977H119.002V91.7209ZM252.997 75.1132C252.986 74.6263 252.784 74.1632 252.436 73.823C252.088 73.4828 251.621 73.2923 251.134 73.2925C250.654 73.3017 250.197 73.4964 249.858 73.8359C249.519 74.1754 249.324 74.6332 249.315 75.1132C249.315 76.1395 250.153 76.9782 251.134 76.9782C252.159 76.934 252.997 76.1395 252.997 75.1132Z" fill="black"/>
<path d="M252.766 75.1132C252.76 75.5445 252.587 75.9566 252.282 76.2617C251.977 76.5667 251.565 76.7406 251.134 76.7463C250.708 76.7391 250.302 76.5632 250.005 76.2571C249.708 75.9511 249.544 75.5398 249.549 75.1132C249.543 74.9008 249.579 74.6893 249.655 74.4913C249.732 74.2932 249.848 74.1126 249.996 73.9602C250.144 73.8078 250.321 73.6868 250.516 73.6043C250.712 73.5218 250.922 73.4795 251.134 73.48C251.565 73.4857 251.977 73.6596 252.282 73.9646C252.587 74.2697 252.76 74.6818 252.766 75.1132Z" fill="white"/>
<path d="M250.481 76.0922H250.712V75.2067H251.366C251.785 75.2067 251.691 75.5791 251.738 75.8136L251.785 76.095H252.066C251.972 75.9101 252.019 75.8632 251.972 75.5819C251.972 75.2563 251.972 75.2094 251.741 75.0687C251.925 74.9308 252.019 74.837 252.019 74.6025C251.972 74.1363 251.694 74.0425 251.369 74.0425H250.481V76.0922Z" fill="black"/>
<path d="M251.366 74.2744C251.55 74.2744 251.785 74.3213 251.738 74.6937C251.738 74.9282 251.55 74.9751 251.366 74.9751H250.712V74.2772H251.366V74.2744Z" fill="white"/>
</g>
<defs>
<clipPath id="clip0_74_236">
<rect width="134" height="64" fill="white" transform="translate(119 44)"/>
</clipPath>
</defs>
</svg>
