<svg width="372" height="152" viewBox="0 0 372 152" fill="none" xmlns="http://www.w3.org/2000/svg">
<path fill-rule="evenodd" clip-rule="evenodd" d="M112.573 79.9396H102.503C102.503 75.3911 104.405 72.925 107.633 72.925C110.672 72.925 112.573 75.7696 112.573 79.9396ZM118.271 84.1132V82.9761C118.271 77.0968 117.131 73.8755 115.041 71.5995C113.332 69.7037 110.672 68.7567 107.631 68.7567C104.213 68.7567 101.553 69.8939 99.4625 72.3582C97.3723 74.8226 96.2328 78.0474 96.2328 82.5958C96.2328 91.3179 100.791 96.6268 108.391 96.6268C112 96.6268 115.23 95.2996 117.89 93.0236L115.8 89.6122C113.709 91.3179 111.619 92.2667 109.15 92.2667C106.68 92.2667 104.781 91.3179 103.451 89.4239C102.69 88.2867 102.311 86.3874 102.311 84.4934V84.1149L118.271 84.1132ZM192.743 83.3528L192.555 89.6105C191.415 91.5045 189.515 92.6434 187.425 92.6434C184.956 92.6434 183.626 91.1278 183.626 88.4733C183.626 86.9578 184.005 85.8189 184.956 84.8701C186.095 83.733 187.997 83.3545 191.415 83.3545L192.743 83.3528ZM200.344 93.402C198.446 92.2649 198.063 91.126 198.063 88.0931V77.6654C198.063 75.1993 198.063 74.2505 197.684 73.1134C196.733 70.2688 193.694 68.7532 189.706 68.7532C187.425 68.7532 184.956 69.1317 182.677 70.2688C181.156 71.0275 179.826 71.4059 178.496 72.3547L180.966 76.3364C182.105 75.5777 182.866 75.1993 184.196 74.4406C185.905 73.6819 187.614 73.3035 188.944 73.3035C190.463 73.3035 191.413 73.6819 191.987 74.4406C192.555 75.1993 192.745 76.148 192.745 78.0438V79.5594H191.036C182.296 79.5594 177.736 82.5923 177.736 88.8483C177.736 90.7458 178.306 93.2119 179.826 94.5374C181.347 95.8646 183.245 96.6216 186.476 96.6216C188.755 96.6216 190.464 96.0547 192.175 95.106C192.743 94.5392 192.934 94.1572 193.694 93.4003C194.262 95.106 195.786 96.4332 197.493 97L200.344 93.402ZM326.491 79.9396H316.61C316.61 75.3911 318.511 72.925 321.55 72.925C324.784 72.925 326.491 75.7696 326.491 79.9396ZM332.379 84.1132V82.9761C332.379 77.0968 331.241 73.8755 329.151 71.5995C327.249 69.7037 324.593 68.7567 321.55 68.7567C318.322 68.7567 315.663 69.8939 313.572 72.3582C311.48 74.8226 310.341 78.0474 310.341 82.5958C310.341 91.3179 314.902 96.6268 322.503 96.6268C325.923 96.6268 329.153 95.2996 332.001 93.0236L329.721 89.6122C327.823 91.3179 325.542 92.2667 323.261 92.2667C320.601 92.2667 318.703 91.3179 317.564 89.4239C316.802 88.2867 316.425 86.1991 316.425 84.4934V84.1149L332.379 84.1132ZM91.675 95.8682V59.6545H85.9741V74.4424H72.8668V59.6545H67.3564V95.8682H72.8668V78.9944H85.9741V95.8682H91.675ZM136.89 69.1334C136.32 68.9433 135.751 68.755 134.8 68.755C131.95 68.755 129.859 70.2705 128.15 72.925V72.3565C128.15 70.8409 127.769 69.8921 127.199 68.755L121.88 70.0822C122.64 71.7879 122.83 73.6837 122.83 76.9067V95.8664H128.529V78.2339C128.72 76.7184 129.099 76.148 130.05 75.201C131.001 74.2523 132.329 74.0639 133.47 74.0639C134.23 74.0639 134.419 74.2523 135.179 74.4424L136.89 69.1334ZM172.986 95.8682V76.3381C172.986 73.4936 172.416 71.7879 170.896 70.4607C169.756 69.3235 168.046 68.755 166.146 68.755C163.297 68.755 160.067 70.2706 157.977 72.7367C157.423 71.5446 156.538 70.5361 155.427 69.8304C154.316 69.1248 153.025 68.7516 151.708 68.755C149.239 68.755 146.579 70.2705 144.679 72.1663C144.491 70.8391 144.11 69.702 143.73 68.9433L138.601 70.2706C139.361 71.9762 139.55 72.925 139.55 76.7184V95.8682H144.87V76.3381C147.151 74.4424 148.86 73.4936 150.569 73.4936C152.848 73.4936 153.419 74.8208 153.419 77.8555V95.8664H158.93V76.7184C161.02 74.4424 163.11 73.4936 164.629 73.4936C166.719 73.4936 167.478 74.6307 167.478 77.2852V95.8682H172.986ZM225.23 95.8682V76.1498C225.23 71.4094 222.382 68.9451 218.203 68.9451C215.354 68.9451 213.074 69.8939 210.225 72.3565C210.225 71.2193 209.842 70.0822 209.274 68.755L204.145 70.2706C204.907 71.9762 204.907 73.4936 204.907 76.3381V95.8682H210.416V76.7184C212.314 74.8208 214.785 73.4936 216.686 73.4936C218.775 73.4936 219.725 74.6307 219.725 78.2339V95.8682H225.23ZM268.167 95.8682L265.127 59.6545H257.338L250.307 86.574L243.09 59.6545H235.112L231.69 95.8682H237.01L239.479 65.5319L247.647 95.8682H252.02L260.377 66.1005L262.658 95.8682H268.167ZM279.755 95.8682V68.755L274.058 69.7038V95.8682H279.755ZM280.706 61.5503C280.706 59.6545 278.993 57.7587 276.907 57.7587C275.005 57.7587 273.107 59.6545 273.107 61.5503C273.107 63.8245 274.816 65.3436 276.907 65.3436C278.995 65.3418 280.706 63.8245 280.706 61.5503ZM295.524 95.8682L294.385 92.455H293.817C292.866 92.455 292.108 91.8882 292.108 89.8006V64.9634C292.108 61.5503 292.108 59.276 291.725 57.3785L286.028 58.7057C286.407 60.6015 286.596 62.4973 286.596 66.2889V90.1773C286.596 94.159 288.688 96.435 291.915 96.435C293.436 96.435 294.383 96.2466 295.524 95.8682ZM308.443 95.8682L307.303 92.455C306.545 92.455 305.974 92.455 305.594 92.0766C305.215 91.5063 305.023 90.3674 305.023 87.7129V64.9634C305.023 61.5503 305.023 59.276 304.455 57.3785L298.758 58.7057C299.326 60.6015 299.326 62.4973 299.326 66.2889V89.2285C299.326 92.0748 299.893 93.5922 300.655 94.5409C301.417 95.8682 303.125 96.435 304.834 96.435C306.162 96.435 307.302 96.2466 308.443 95.8682ZM351 69.1334C350.428 68.9433 349.861 68.755 348.908 68.755C346.059 68.755 343.779 70.2705 342.069 72.925V72.3565C342.069 70.8409 341.69 69.8921 341.119 68.755L335.989 70.0822C336.751 71.7879 336.94 73.6837 336.94 76.9067V95.8664H342.449V78.2339C342.828 76.7184 343.211 76.148 344.158 75.201C345.109 74.2523 346.439 74.0639 347.578 74.0639C348.15 74.0639 348.529 74.2523 349.287 74.4424L351 69.1334ZM51.9684 87.3345C51.9684 87.3345 47.4105 85.8189 40.9494 85.8189C34.2996 85.8189 29.74 87.3345 29.74 87.3345V66.6691H30.1192C30.1192 66.6691 31.8302 84.8701 40.9494 84.8701C49.8782 84.8701 51.5874 66.6691 51.5874 66.6691H51.9666V87.3345H51.9684ZM60.7066 76.9067C60.7066 65.9086 51.7779 57 40.9494 57C29.9305 57 21 65.9104 21 76.9067C21 87.9048 29.9287 96.8134 40.9494 96.8134C51.7779 96.8134 60.7066 87.9048 60.7066 76.9067Z" fill="#CE3B29"/>
</svg>
