<svg width="372" height="152" viewBox="0 0 372 152" fill="none" xmlns="http://www.w3.org/2000/svg">
<path fill-rule="evenodd" clip-rule="evenodd" d="M74.0874 57.0662H100.558C100.558 57.0662 99.8522 58.1745 99.8522 59.559V93.5541C99.8522 95.4006 100.646 96.9709 100.646 96.9709H74C74 96.9709 74.7935 95.399 74.7935 93.8288V59.8352C74.7935 58.5428 74.0874 57.0662 74.0874 57.0662ZM113.737 57.1567H138.907C138.907 57.1567 138.201 58.3393 138.201 59.433V71.63L147.121 60.252C147.121 60.252 147.652 59.433 147.652 58.6139V57.3393H173.263L162.4 72.4491C162.4 72.4491 161.87 73.0856 161.87 73.5412C161.87 73.9968 162.313 74.6333 162.313 74.6333L176.267 96.7512H145.442C145.442 96.7512 145.973 95.9338 145.973 95.1131C145.973 94.2956 145.442 93.2924 145.442 93.2924L138.111 81.3683V94.2956C138.111 95.3877 138.906 96.8417 138.906 96.8417H113.737C113.737 96.8417 114.443 95.8417 114.443 94.7496V59.4313C114.443 58.3409 113.737 57.1567 113.737 57.1567ZM183.763 57.433H228.787V69.4976C228.787 69.4976 227.816 68.6042 226.583 68.6042H208.13V71.9095H224.198V82.5444C224.198 82.5444 223.139 81.651 221.991 81.651H207.954V85.315H226.846C227.905 85.315 228.525 83.6171 228.525 83.6171V96.8417H183.763C183.763 96.8417 184.56 95.6801 184.56 94.8756V60.3829C184.562 58.9515 183.763 57.433 183.763 57.433ZM248.708 57H284.707C284.707 57 284.001 58.6624 284.001 59.5864C284.001 60.5105 284.618 62.1729 284.618 62.1729L299 96.9063H272.001C272.001 96.9063 272.618 95.8901 272.264 95.0598C271.52 93.2151 270.786 91.3669 270.06 89.5153H258.942C258.942 89.5153 256.735 94.4119 256.735 95.3376C256.735 96.2585 257.444 97 257.444 97H235.207L249.148 60.6947C249.148 60.6947 249.679 59.9548 249.679 59.0323C249.679 58.1098 248.708 57 248.708 57ZM263.972 74.7367L261.325 81.8498H267.148L263.972 74.7367Z" fill="#2360A5"/>
</svg>
