<svg width="372" height="152" viewBox="0 0 372 152" fill="none" xmlns="http://www.w3.org/2000/svg">
<path fill-rule="evenodd" clip-rule="evenodd" d="M77 44H121.7V108H77V44ZM83.4427 101.557H115.234V50.4454H83.4427V101.557Z" fill="#F7D730"/>
<path fill-rule="evenodd" clip-rule="evenodd" d="M151.391 72.7142H148.626C144.994 67.5876 141.392 62.4933 137.795 56.7359H137.769V72.7142H134.713V50.4355H137.48C141.112 55.5261 144.709 60.5845 148.273 66.3122H148.336V50.4355H151.393L151.391 72.7142ZM158.656 63.8964C159.543 60.9675 160.436 58.2629 161.234 54.8246H161.298C162.189 58.2629 162.987 60.9687 163.814 63.8964H158.656ZM160.118 50.4355L152.415 72.7142H155.727L157.664 66.6332H164.388L166.139 72.7142H170.409L163.304 50.4355H160.118ZM174.005 72.7142V53.4239H168.143V50.4355H183.684V53.4239H177.827V72.7142H174.005ZM184.923 50.4355H188.719V72.7142H184.923V50.4355ZM200.503 69.9092C196.518 69.9092 195.117 65.5177 195.117 61.2526C195.117 57.1486 196.709 53.2331 200.503 53.2331C204.292 53.2331 205.879 57.1486 205.879 61.2526C205.879 65.5177 204.481 69.9092 200.503 69.9092ZM200.503 73.091C206.329 73.091 209.959 67.9062 209.959 61.2513C209.959 55.0154 205.952 50.0513 200.503 50.0513C195.059 50.0513 191.035 55.0154 191.035 61.2513C191.036 67.9074 194.672 73.091 200.503 73.091ZM228.972 72.7142H226.203C222.569 67.5876 218.969 62.4933 215.374 56.7359H215.343V72.7142H212.291V50.4355H215.059C218.686 55.5261 222.286 60.5845 225.847 66.3122H225.913V50.4355H228.973V72.7142H228.972ZM236.233 63.8964C237.127 60.9675 238.014 58.2629 238.816 54.8246H238.879C239.771 58.2629 240.565 60.9687 241.391 63.8964H236.233ZM237.702 50.4355L229.995 72.7142H233.309L235.247 66.6332H241.97L243.721 72.7142H247.987L240.883 50.4355H237.702ZM249.097 50.4355H252.894V69.7208H260.438V72.7142H249.097V50.4355ZM149.042 91.3487V100.543C147.001 101.343 144.867 101.912 142.707 101.912C136.144 101.912 132.005 96.8198 132.005 90.2629C132.005 84.182 136.144 78.8695 142.832 78.8695C144.899 78.8695 146.97 79.6367 148.246 80.5899L147.003 83.2313C145.986 82.6004 144.389 82.0587 142.927 82.0587C138.853 82.0587 136.08 85.2739 136.08 90.3348C136.08 95.6138 139.266 98.7299 142.547 98.7299C143.562 98.7299 144.426 98.6084 145.226 98.1907V91.3487H149.042ZM162.711 82.2496H156.334V88.3566H162.576V91.3487H156.334V98.5365H163.85V101.532H152.51V79.2525H162.711V82.2496ZM174.494 98.7286C170.509 98.7286 169.106 94.3408 169.106 90.0733C169.106 85.9718 170.698 82.0575 174.494 82.0575C178.281 82.0575 179.87 85.9718 179.87 90.0733C179.87 94.3408 178.466 98.7286 174.494 98.7286ZM174.494 101.912C180.319 101.912 183.947 96.7244 183.947 90.072C183.947 83.8361 179.937 78.8682 174.494 78.8682C169.041 78.8682 165.033 83.8361 165.033 90.072C165.032 96.7256 168.657 101.912 174.494 101.912ZM202.289 91.3487V100.543C200.249 101.343 198.12 101.912 195.952 101.912C189.394 101.912 185.251 96.8198 185.251 90.2629C185.251 84.182 189.394 78.8695 196.082 78.8695C198.154 78.8695 200.22 79.6367 201.492 80.5899L200.249 83.2313C199.229 82.6004 197.646 82.0587 196.179 82.0587C192.097 82.0587 189.326 85.2739 189.326 90.3348C189.326 95.6138 192.513 98.7299 195.794 98.7299C196.816 98.7299 197.672 98.6084 198.471 98.1907V91.3487H202.289ZM209.622 82.2496H211.306C213.561 82.2496 214.838 83.5486 214.838 85.8429C214.838 88.8313 213.026 90.1662 211.209 90.2617C210.826 90.3001 209.933 90.3323 209.622 90.3596V82.2496ZM219.301 101.532L214.802 92.3068C217.255 91.0054 218.664 88.3566 218.664 85.683C218.664 81.351 216.016 79.2525 211.747 79.2525H205.792V101.532H209.622V93.1311H211.34L214.933 101.532H219.301ZM225.605 92.7159C226.495 89.7832 227.386 87.0811 228.185 83.644H228.248C229.14 87.0811 229.934 89.7832 230.763 92.7159H225.605ZM227.068 79.2525L219.358 101.532H222.67L224.615 95.4514H231.338L233.08 101.532H237.356L230.249 79.2525H227.068ZM244.519 79.2525H238.564V101.532H242.387V93.1311H244.102C248.659 93.1311 251.433 89.4386 251.433 85.683C251.433 81.3497 248.787 79.2525 244.519 79.2525ZM243.983 90.2629C243.586 90.2989 242.653 90.3286 242.387 90.3546V82.2496H244.102C246.331 82.2496 247.61 83.5486 247.61 85.8429C247.61 88.8313 245.8 90.1675 243.983 90.2629ZM269.137 101.532H265.317V90.8108H257.381V101.532H253.601V79.2525H257.381V87.8137H265.317V79.3157H269.137V101.532ZM272.797 79.2525H276.595V101.532H272.797V79.2525ZM293.786 83.297C292.86 82.7231 291.338 82.0575 289.866 82.0575C285.975 82.0575 283.15 85.2727 283.15 90.3336C283.15 95.6126 286.269 98.7286 289.965 98.7286C291.318 98.7223 292.642 98.3357 293.786 97.6131L294.84 100.385C293.686 101.179 291.655 101.912 289.81 101.912C283.247 101.912 279.104 96.8198 279.104 90.2629C279.104 84.182 283.211 78.8695 289.866 78.8695C291.846 78.8695 293.686 79.7024 295 80.5899L293.786 83.297Z" fill="black"/>
</svg>
