<svg width="372" height="152" viewBox="0 0 372 152" fill="none" xmlns="http://www.w3.org/2000/svg">
<path fill-rule="evenodd" clip-rule="evenodd" d="M55.9541 67.9498C43.8285 67.9498 34 73.3293 34 79.9749C34 86.6119 43.8285 92 55.9541 92C68.0797 92 77.9099 86.6119 77.9099 79.9749C77.9099 73.3293 68.0797 67.9498 55.9541 67.9498ZM55.9541 90.4623C47.5994 90.4623 40.8325 85.7678 40.8325 79.9749C40.8325 74.1821 47.6011 69.4876 55.9541 69.4876C64.3054 69.4876 71.0757 74.1821 71.0757 79.9749C71.0757 85.7678 64.3036 90.4623 55.9541 90.4623ZM109.921 90.656H120.405L98.4283 76.6037L115.994 69.1589H108.134L87.3959 77.9511L87.2333 60H81.5061V90.656H87.5136L87.4253 81.267L92.433 79.1447L109.921 90.656Z" fill="#C3513F"/>
<path fill-rule="evenodd" clip-rule="evenodd" d="M157.688 88.1014L157.683 76.3911C157.683 73.3001 152.765 67.9224 139.576 67.9224C129.685 67.9224 121.664 70.4287 121.664 75.2754H127.843C127.843 74.4348 128.388 69.6175 139.763 69.6175C150.586 69.6175 151.158 73.8432 151.568 75.2754C151.568 75.2754 151.817 76.4361 151.369 76.9879C150.693 77.8389 148.114 77.8804 148.114 77.8804C145.789 78.3267 129.903 78.2194 129.903 78.2194C126.13 78.2194 118.481 80.1706 118.481 84.661C118.481 88.5286 126.625 91.6716 136.665 91.6716C142.262 91.6716 147.27 90.6908 150.607 89.1565C150.607 89.1565 151.362 88.7725 151.527 89.3364C151.691 89.9003 152.383 90.4729 153.111 90.4729H157.906C157.906 90.4729 158.268 90.4729 158.268 90.2566C158.268 90.0439 157.688 88.7552 157.688 88.1014ZM151.719 80.4076V84.2614C151.719 87.3092 143.933 89.7152 137.03 89.7152C130.91 89.7152 126.006 87.3074 126.006 84.2614C126.006 82.7825 127.513 79.6672 132.368 79.6672H150.887C151.345 79.6672 151.722 79.9993 151.722 80.4179L151.719 80.4076ZM337.424 88.1014L337.421 76.3911C337.421 73.3001 332.501 67.9224 319.312 67.9224C309.419 67.9224 301.4 70.4287 301.4 75.2754H307.579C307.579 74.4348 308.125 69.6175 319.498 69.6175C330.323 69.6175 330.894 73.8432 331.302 75.2754C331.302 75.2754 331.553 76.4361 331.107 76.9879C330.427 77.8389 327.853 77.8804 327.853 77.8804C325.525 78.3267 309.641 78.2194 309.641 78.2194C305.87 78.2194 298.221 80.1706 298.221 84.661C298.221 88.5286 306.359 91.6716 316.401 91.6716C321.998 91.6716 327.009 90.6908 330.346 89.1565C330.346 89.1565 331.1 88.7725 331.268 89.3364C331.423 89.8986 332.119 90.4729 332.845 90.4729H337.642C337.642 90.4729 338 90.4729 338 90.2566C338.002 90.0439 337.424 88.7552 337.424 88.1014ZM331.455 80.4076V84.2614C331.455 87.3092 323.671 89.7152 316.765 89.7152C310.647 89.7152 305.745 87.3074 305.745 84.2614C305.745 82.7825 307.248 79.6672 312.107 79.6672H330.621C331.081 79.6672 331.461 79.9993 331.461 80.4179L331.455 80.4076ZM252.571 69.3511L252.301 84.0348C251.848 87.0463 244.619 89.8121 238.58 89.8121C229.989 89.8121 225.664 84.8754 225.664 82.2999V69.3511H220.029V81.7533C220.029 86.5187 227.678 91.4761 237.57 91.4761C242.507 91.4761 248.354 90.0266 252.226 88.0927L252.183 90.67H258.206V69.3511H252.571ZM202.895 68.1022C197.717 68.1022 193.055 69.8285 190.827 72.1152C188.647 69.2767 184.517 67.9345 178.67 67.9345C174.801 67.9345 170.736 68.763 167.786 70.0724L167.814 68.4067H161.783V90.6545H167.422L167.674 76.3531C167.786 72.2969 172.154 69.7057 177.26 69.7057C182.432 69.7057 186.406 72.4785 186.406 75.0592V90.6545H192.045V75.6664L192.062 75.6716C192.062 73.4713 196.312 69.9859 201.484 69.9859C206.659 69.9859 210.629 72.309 210.629 74.888V90.6891H216.268V74.8361C216.27 72.1844 210.124 68.1022 202.895 68.1022ZM281.835 68.9083C276.178 68.9083 271.264 69.9877 268.007 71.56V69.358H262.148V90.6493H268.007V76.4274H268.031C268.031 73.3001 274.22 69.8441 281.774 69.8441C288.214 69.8441 290.643 72.7397 291.457 75.2772H298.139C296.88 71.726 292.687 68.9083 281.835 68.9083ZM55.9541 67.95C43.8285 67.95 34 73.3295 34 79.9751C34 86.6121 43.8285 92.0002 55.9541 92.0002C68.0797 92.0002 77.9099 86.6121 77.9099 79.9751C77.9099 73.3295 68.0797 67.95 55.9541 67.95ZM55.9541 90.4625C47.5994 90.4625 40.8326 85.768 40.8326 79.9751C40.8326 74.1823 47.6011 69.4878 55.9541 69.4878C64.3054 69.4878 71.0757 74.1823 71.0757 79.9751C71.0757 85.768 64.3037 90.4625 55.9541 90.4625Z" fill="#C3513F"/>
<path fill-rule="evenodd" clip-rule="evenodd" d="M109.92 90.656H120.404L98.4281 76.6037L115.993 69.1589H108.134L87.3958 77.9511L87.2332 60H81.5061V90.656H87.5135L87.4252 81.267L92.4328 79.1447L109.92 90.656Z" fill="#C3513F"/>
<path fill-rule="evenodd" clip-rule="evenodd" d="M157.688 88.1014L157.683 76.3911C157.683 73.3001 152.765 67.9224 139.576 67.9224C129.685 67.9224 121.664 70.4287 121.664 75.2754H127.843C127.843 74.4348 128.388 69.6175 139.762 69.6175C150.586 69.6175 151.158 73.8432 151.568 75.2754C151.568 75.2754 151.817 76.4361 151.369 76.9879C150.693 77.8389 148.114 77.8804 148.114 77.8804C145.789 78.3267 129.903 78.2194 129.903 78.2194C126.13 78.2194 118.481 80.1706 118.481 84.661C118.481 88.5286 126.625 91.6716 136.664 91.6716C142.262 91.6716 147.27 90.6908 150.606 89.1565C150.606 89.1565 151.362 88.7725 151.527 89.3364C151.691 89.9003 152.383 90.4729 153.111 90.4729H157.906C157.906 90.4729 158.267 90.4729 158.267 90.2566C158.267 90.0439 157.688 88.7552 157.688 88.1014ZM151.719 80.4076V84.2614C151.719 87.3092 143.933 89.7152 137.029 89.7152C130.91 89.7152 126.006 87.3074 126.006 84.2614C126.006 82.7825 127.512 79.6672 132.368 79.6672H150.887C151.345 79.6672 151.722 79.9993 151.722 80.4179L151.719 80.4076ZM337.424 88.1014L337.42 76.3911C337.42 73.3001 332.501 67.9224 319.311 67.9224C309.419 67.9224 301.4 70.4287 301.4 75.2754H307.578C307.578 74.4348 308.125 69.6175 319.498 69.6175C330.323 69.6175 330.894 73.8432 331.302 75.2754C331.302 75.2754 331.553 76.4361 331.107 76.9879C330.427 77.8389 327.853 77.8804 327.853 77.8804C325.525 78.3267 309.64 78.2194 309.64 78.2194C305.869 78.2194 298.22 80.1706 298.22 84.661C298.22 88.5286 306.359 91.6716 316.4 91.6716C321.998 91.6716 327.009 90.6908 330.346 89.1565C330.346 89.1565 331.1 88.7725 331.268 89.3364C331.423 89.8986 332.119 90.4729 332.845 90.4729H337.642C337.642 90.4729 338 90.4729 338 90.2566C338.001 90.0439 337.424 88.7552 337.424 88.1014ZM331.454 80.4076V84.2614C331.454 87.3092 323.67 89.7152 316.765 89.7152C310.647 89.7152 305.745 87.3074 305.745 84.2614C305.745 82.7825 307.248 79.6672 312.107 79.6672H330.621C331.081 79.6672 331.461 79.9993 331.461 80.4179L331.454 80.4076ZM252.57 69.3511L252.301 84.0348C251.847 87.0463 244.619 89.8121 238.58 89.8121C229.988 89.8121 225.664 84.8754 225.664 82.2999V69.3511H220.028V81.7533C220.028 86.5187 227.677 91.4761 237.57 91.4761C242.507 91.4761 248.353 90.0266 252.226 88.0927L252.183 90.67H258.206V69.3511H252.57ZM202.895 68.1022C197.716 68.1022 193.055 69.8285 190.827 72.1152C188.647 69.2767 184.516 67.9345 178.67 67.9345C174.8 67.9345 170.735 68.763 167.786 70.0724L167.814 68.4067H161.782V90.6545H167.421L167.674 76.3531C167.786 72.2969 172.154 69.7057 177.26 69.7057C182.432 69.7057 186.405 72.4785 186.405 75.0592V90.6545H192.044V75.6664L192.062 75.6716C192.062 73.4713 196.312 69.9859 201.484 69.9859C206.659 69.9859 210.629 72.309 210.629 74.888V90.6891H216.268V74.8361C216.27 72.1844 210.124 68.1022 202.895 68.1022ZM281.834 68.9083C276.178 68.9083 271.264 69.9877 268.007 71.56V69.358H262.148V90.6493H268.007V76.4274H268.031C268.031 73.3001 274.22 69.8441 281.774 69.8441C288.214 69.8441 290.642 72.7397 291.457 75.2772H298.139C296.88 71.726 292.687 68.9083 281.834 68.9083Z" fill="#C3513F"/>
</svg>
