<svg width="36" height="36" viewBox="0 0 36 36" fill="none" xmlns="http://www.w3.org/2000/svg">
<path d="M34.6166 28.5502C34.6166 29.1502 34.4833 29.7668 34.1999 30.3668C33.9166 30.9668 33.5499 31.5335 33.0666 32.0668C32.2499 32.9668 31.3499 33.6168 30.3333 34.0335C29.3333 34.4502 28.2499 34.6668 27.0833 34.6668C25.3833 34.6668 23.5666 34.2668 21.6499 33.4502C19.7333 32.6335 17.8166 31.5335 15.9166 30.1502C13.9999 28.7502 12.1833 27.2002 10.4499 25.4835C8.73325 23.7502 7.18325 21.9335 5.79992 20.0335C4.43325 18.1335 3.33325 16.2335 2.53325 14.3502C1.73325 12.4502 1.33325 10.6335 1.33325 8.90016C1.33325 7.76683 1.53325 6.6835 1.93325 5.6835C2.33325 4.66683 2.96659 3.7335 3.84992 2.90016C4.91659 1.85016 6.08325 1.3335 7.31659 1.3335C7.78325 1.3335 8.24992 1.4335 8.66659 1.6335C9.09992 1.8335 9.48325 2.1335 9.78325 2.56683L13.6499 8.01683C13.9499 8.4335 14.1666 8.81683 14.3166 9.1835C14.4666 9.5335 14.5499 9.8835 14.5499 10.2002C14.5499 10.6002 14.4333 11.0002 14.1999 11.3835C13.9833 11.7668 13.6666 12.1668 13.2666 12.5668L11.9999 13.8835C11.8166 14.0668 11.7333 14.2835 11.7333 14.5502C11.7333 14.6835 11.7499 14.8002 11.7833 14.9335C11.8333 15.0668 11.8833 15.1668 11.9166 15.2668C12.2166 15.8168 12.7333 16.5335 13.4666 17.4002C14.2166 18.2668 15.0166 19.1502 15.8833 20.0335C16.7833 20.9168 17.6499 21.7335 18.5333 22.4835C19.3999 23.2168 20.1166 23.7168 20.6833 24.0168C20.7666 24.0502 20.8666 24.1002 20.9833 24.1502C21.1166 24.2002 21.2499 24.2168 21.3999 24.2168C21.6833 24.2168 21.8999 24.1168 22.0833 23.9335L23.3499 22.6835C23.7666 22.2668 24.1666 21.9502 24.5499 21.7502C24.9333 21.5168 25.3166 21.4002 25.7333 21.4002C26.0499 21.4002 26.3833 21.4668 26.7499 21.6168C27.1166 21.7668 27.4999 21.9835 27.9166 22.2668L33.4333 26.1835C33.8666 26.4835 34.1666 26.8335 34.3499 27.2502C34.5166 27.6668 34.6166 28.0835 34.6166 28.5502Z" stroke="white" strokeWidth="2.5" strokeMiterlimit="10"/>
</svg>
