<svg width="21" height="17" viewBox="0 0 21 17" fill="none" xmlns="http://www.w3.org/2000/svg">
<path d="M9.40925 0.511997L10.3253 0.913075L10.9387 -0.488003H9.40925V0.511997ZM4.22525 12.352L3.23402 12.4842L3.70674 16.0295L5.14129 12.7531L4.22525 12.352ZM3.84125 9.472V8.472H2.69907L2.85002 9.60416L3.84125 9.472ZM6.14525 10.432L5.43814 11.1391L5.43814 11.1391L6.14525 10.432ZM6.01725 15.424L5.33189 14.6958L5.32086 14.7062L5.31014 14.7169L6.01725 15.424ZM1.21725 15.488L0.510144 16.1951H0.510144L1.21725 15.488ZM0.51325 11.584L-0.409827 11.1994L-0.418678 11.2206L-0.426543 11.2423L0.51325 11.584ZM1.40925 9.792L2.28083 10.2823L2.28676 10.2717L2.29245 10.261L1.40925 9.792ZM6.33725 0.511997V-0.488003H5.73603L5.45406 0.0429907L6.33725 0.511997ZM20.2893 0.511997L21.2053 0.913075L21.8187 -0.488003H20.2893V0.511997ZM15.1053 12.352L14.114 12.4842L14.5867 16.0295L16.0213 12.7531L15.1053 12.352ZM14.7213 9.472V8.472H13.5791L13.73 9.60416L14.7213 9.472ZM17.0253 10.432L16.3181 11.1391V11.1391L17.0253 10.432ZM16.8973 15.424L16.2119 14.6958L16.2009 14.7062L16.1901 14.7169L16.8973 15.424ZM12.0972 15.488L11.3901 16.1951H11.3901L12.0972 15.488ZM11.3933 11.584L10.4702 11.1994L10.4613 11.2206L10.4535 11.2423L11.3933 11.584ZM12.2893 9.792L13.1608 10.2823L13.1668 10.2717L13.1724 10.261L12.2893 9.792ZM17.2173 0.511997V-0.488003H16.616L16.3341 0.0429907L17.2173 0.511997ZM8.49321 0.110919L3.30921 11.9509L5.14129 12.7531L10.3253 0.913075L8.49321 0.110919ZM5.21648 12.2198L4.83248 9.33983L2.85002 9.60416L3.23402 12.4842L5.21648 12.2198ZM3.84125 10.472C4.46902 10.472 4.98354 10.6845 5.43814 11.1391L6.85236 9.72489C6.02696 8.8995 5.00548 8.472 3.84125 8.472V10.472ZM5.43814 11.1391C5.88298 11.5839 6.10525 12.1156 6.10525 12.8H8.10525C8.10525 11.6071 7.68752 10.5601 6.85236 9.72489L5.43814 11.1391ZM6.10525 12.8C6.10525 13.6128 5.84106 14.2166 5.33189 14.6958L6.70262 16.1522C7.64411 15.2661 8.10525 14.1205 8.10525 12.8H6.10525ZM5.31014 14.7169C4.81845 15.2086 4.24227 15.448 3.52125 15.448V17.448C4.7629 17.448 5.85072 17.0047 6.72436 16.1311L5.31014 14.7169ZM3.52125 15.448C2.89348 15.448 2.37896 15.2355 1.92436 14.7809L0.510144 16.1951C1.33554 17.0205 2.35702 17.448 3.52125 17.448V15.448ZM1.92436 14.7809C1.46975 14.3263 1.25725 13.8118 1.25725 13.184H-0.74275C-0.74275 14.3482 -0.315253 15.3697 0.510144 16.1951L1.92436 14.7809ZM1.25725 13.184C1.25725 12.681 1.32916 12.2664 1.45304 11.9257L-0.426543 11.2423C-0.643993 11.8402 -0.74275 12.4924 -0.74275 13.184H1.25725ZM1.43633 11.9686C1.62985 11.5041 1.9089 10.9435 2.28083 10.2823L0.537675 9.30174C0.1416 10.0059 -0.176687 10.6398 -0.409827 11.1994L1.43633 11.9686ZM2.29245 10.261L7.22045 0.981004L5.45406 0.0429907L0.526056 9.32299L2.29245 10.261ZM6.33725 1.512H9.40925V-0.488003H6.33725V1.512ZM19.3732 0.110919L14.1892 11.9509L16.0213 12.7531L21.2053 0.913075L19.3732 0.110919ZM16.0965 12.2198L15.7125 9.33983L13.73 9.60416L14.114 12.4842L16.0965 12.2198ZM14.7213 10.472C15.349 10.472 15.8635 10.6845 16.3181 11.1391L17.7324 9.72489C16.907 8.8995 15.8855 8.472 14.7213 8.472V10.472ZM16.3181 11.1391C16.763 11.5839 16.9853 12.1156 16.9853 12.8H18.9853C18.9853 11.6071 18.5675 10.5601 17.7324 9.72489L16.3181 11.1391ZM16.9853 12.8C16.9853 13.6128 16.7211 14.2166 16.2119 14.6958L17.5826 16.1522C18.5241 15.2661 18.9853 14.1205 18.9853 12.8H16.9853ZM16.1901 14.7169C15.6985 15.2086 15.1223 15.448 14.4013 15.448V17.448C15.6429 17.448 16.7307 17.0047 17.6044 16.1311L16.1901 14.7169ZM14.4013 15.448C13.7735 15.448 13.259 15.2355 12.8044 14.7809L11.3901 16.1951C12.2155 17.0205 13.237 17.448 14.4013 17.448V15.448ZM12.8044 14.7809C12.3498 14.3263 12.1373 13.8118 12.1373 13.184H10.1373C10.1373 14.3482 10.5647 15.3697 11.3901 16.1951L12.8044 14.7809ZM12.1373 13.184C12.1373 12.681 12.2092 12.2664 12.333 11.9257L10.4535 11.2423C10.236 11.8402 10.1373 12.4924 10.1373 13.184H12.1373ZM12.3163 11.9686C12.5099 11.5041 12.7889 10.9435 13.1608 10.2823L11.4177 9.30174C11.0216 10.0059 10.7033 10.6398 10.4702 11.1994L12.3163 11.9686ZM13.1724 10.261L18.1004 0.981004L16.3341 0.0429907L11.4061 9.32299L13.1724 10.261ZM17.2173 1.512H20.2893V-0.488003H17.2173V1.512Z" fill="white"/>
</svg>
