<svg width="21" height="17" viewBox="0 0 21 17" fill="none" xmlns="http://www.w3.org/2000/svg">
<path d="M0.87325 16.128L-0.0438194 15.7293L-0.651961 17.128H0.87325V16.128ZM5.99325 4.352L6.98083 4.19488L6.44246 0.81083L5.07618 3.95327L5.99325 4.352ZM6.44125 7.168V8.168H7.61292L7.42883 7.01089L6.44125 7.168ZM4.07325 6.208L4.78036 5.50089L4.78036 5.50089L4.07325 6.208ZM4.20125 1.216L4.88661 1.9442L4.88662 1.9442L4.20125 1.216ZM9.00125 1.152L8.2702 1.83432L8.29372 1.85952L8.31893 1.88305L9.00125 1.152ZM9.64125 5.12L8.71817 4.73538L8.70932 4.75663L8.70146 4.77826L9.64125 5.12ZM8.80925 6.912L7.92546 6.44411L7.92487 6.44524L8.80925 6.912ZM3.94525 16.128V17.128H4.5482L4.82964 16.5948L3.94525 16.128ZM11.7533 16.128L10.8362 15.7293L10.228 17.128H11.7533V16.128ZM16.8733 4.352L17.8608 4.19488L17.3225 0.81083L15.9562 3.95327L16.8733 4.352ZM17.3213 7.168V8.168H18.4929L18.3088 7.01089L17.3213 7.168ZM14.9533 6.208L15.6604 5.50089V5.50089L14.9533 6.208ZM15.0813 1.216L15.7666 1.9442L15.7666 1.9442L15.0813 1.216ZM19.8813 1.152L19.1502 1.83432L19.1737 1.85952L19.1989 1.88305L19.8813 1.152ZM20.5213 5.12L19.5982 4.73538L19.5893 4.75663L19.5815 4.77826L20.5213 5.12ZM19.6893 6.912L18.8055 6.44411L18.8049 6.44524L19.6893 6.912ZM14.8253 16.128V17.128H15.4282L15.7096 16.5948L14.8253 16.128ZM1.79032 16.5267L6.91032 4.75072L5.07618 3.95327L-0.0438194 15.7293L1.79032 16.5267ZM5.00567 4.50911L5.45367 7.32511L7.42883 7.01089L6.98083 4.19488L5.00567 4.50911ZM6.44125 6.168C5.75682 6.168 5.2252 5.94573 4.78036 5.50089L3.36614 6.9151C4.20131 7.75027 5.24835 8.168 6.44125 8.168V6.168ZM4.78036 5.50089C4.33552 5.05605 4.11325 4.52443 4.11325 3.84H2.11325C2.11325 5.0329 2.53098 6.07994 3.36614 6.9151L4.78036 5.50089ZM4.11325 3.84C4.11325 3.02721 4.37744 2.42342 4.88661 1.9442L3.51589 0.4878C2.57439 1.37391 2.11325 2.51945 2.11325 3.84H4.11325ZM4.88662 1.9442C5.43892 1.42438 6.02994 1.192 6.69725 1.192V-0.808002C5.48722 -0.808002 4.41425 -0.357718 3.51588 0.487801L4.88662 1.9442ZM6.69725 1.192C7.38113 1.192 7.87675 1.41276 8.2702 1.83432L9.73231 0.469678C8.93109 -0.388769 7.8907 -0.808002 6.69725 -0.808002V1.192ZM8.31893 1.88305C8.73072 2.26739 8.96125 2.7788 8.96125 3.52H10.9613C10.9613 2.29852 10.5518 1.23127 9.68357 0.420941L8.31893 1.88305ZM8.96125 3.52C8.96125 3.94264 8.88073 4.34525 8.71817 4.73538L10.5643 5.50461C10.8284 4.87074 10.9613 4.20669 10.9613 3.52H8.96125ZM8.70146 4.77826C8.55329 5.18573 8.29972 5.73718 7.92546 6.44411L9.69304 7.37989C10.0868 6.63615 10.3879 5.99293 10.581 5.46174L8.70146 4.77826ZM7.92487 6.44524L3.06087 15.6612L4.82964 16.5948L9.69364 7.37876L7.92487 6.44524ZM3.94525 15.128H0.87325V17.128H3.94525V15.128ZM12.6703 16.5267L17.7903 4.75072L15.9562 3.95327L10.8362 15.7293L12.6703 16.5267ZM15.8857 4.50911L16.3337 7.32511L18.3088 7.01089L17.8608 4.19488L15.8857 4.50911ZM17.3213 6.168C16.6368 6.168 16.1052 5.94573 15.6604 5.50089L14.2461 6.9151C15.0813 7.75027 16.1283 8.168 17.3213 8.168V6.168ZM15.6604 5.50089C15.2155 5.05605 14.9933 4.52443 14.9933 3.84H12.9933C12.9933 5.0329 13.411 6.07994 14.2461 6.9151L15.6604 5.50089ZM14.9933 3.84C14.9933 3.02721 15.2574 2.42342 15.7666 1.9442L14.3959 0.4878C13.4544 1.37391 12.9933 2.51945 12.9933 3.84H14.9933ZM15.7666 1.9442C16.3189 1.42438 16.9099 1.192 17.5773 1.192V-0.808002C16.3672 -0.808002 15.2942 -0.357718 14.3959 0.487801L15.7666 1.9442ZM17.5773 1.192C18.2611 1.192 18.7567 1.41276 19.1502 1.83432L20.6123 0.469678C19.8111 -0.388768 18.7707 -0.808002 17.5773 -0.808002V1.192ZM19.1989 1.88305C19.6107 2.26739 19.8413 2.7788 19.8413 3.52H21.8413C21.8413 2.29852 21.4318 1.23127 20.5636 0.420941L19.1989 1.88305ZM19.8413 3.52C19.8413 3.94264 19.7607 4.34525 19.5982 4.73538L21.4443 5.50461C21.7084 4.87074 21.8413 4.20669 21.8413 3.52H19.8413ZM19.5815 4.77826C19.4333 5.18573 19.1797 5.73718 18.8055 6.44411L20.573 7.37989C20.9668 6.63615 21.2679 5.99294 21.461 5.46174L19.5815 4.77826ZM18.8049 6.44524L13.9409 15.6612L15.7096 16.5948L20.5736 7.37876L18.8049 6.44524ZM14.8253 15.128H11.7533V17.128H14.8253V15.128Z" fill="white"/>
</svg>
