<svg width="372" height="152" viewBox="0 0 372 152" fill="none" xmlns="http://www.w3.org/2000/svg">
<path fill-rule="evenodd" clip-rule="evenodd" d="M123.931 87.427V71.4245H128.534V66.8467H123.931V57.8019H117.948V66.8467H115.628C115.024 62.2123 111.611 56 101.543 56C89.7363 56 87.5577 63.46 87.5577 67.6928C87.5577 76.052 93.2327 77.4275 99.1102 78.8573L103.013 79.8097C106.864 80.7622 109.601 81.5551 109.601 84.5176C109.601 88.5389 105.597 89.4382 101.999 89.4382C95.3604 89.4382 94.3469 85.4169 94.296 83.3005H87C87 88.0106 89.2804 96 102.557 96C105.749 96 116.898 94.9944 116.898 83.5663C116.898 76.742 112.337 74.6256 107.371 73.3554L98.5027 71.0806C96.9825 70.7096 94.6512 70.075 94.6512 67.1125C94.6512 63.6738 98.0967 62.563 100.986 62.563C106.127 62.563 107.65 64.9746 108.171 66.8489H108.083V71.4267H117.948V89.23C117.948 92.8803 117.687 95.3145 124.09 95.3145H125.042C126.206 95.3145 127.37 95.2614 128.534 95.2082V89.5988C128.004 89.6519 127.475 89.7051 127 89.7051C123.984 89.7029 123.931 89.0694 123.931 87.427Z" fill="black"/>
<path fill-rule="evenodd" clip-rule="evenodd" d="M235.683 89.4914V74.2547C235.683 67.3241 228.434 66.107 224.466 66.107C219.063 66.107 213.47 67.1759 212.092 74.4074C210.347 67.7302 204.061 66.107 200.074 66.107C192.235 66.107 188.164 70.5185 186.966 77.1528V57.0068H179.559V77.25C178.014 68.1318 171.534 66.107 166.673 66.107C157.168 66.107 154.3 72.5546 153.485 77.06C151.881 68.1069 145.46 66.107 140.635 66.107C128.308 66.107 127.144 76.9537 127.144 80.3392C127.144 91.9268 133.228 95.7354 141.164 95.7354C145.978 95.7354 151.587 93.515 153.545 86.7416H145.925C145.344 88.7516 143.227 89.8104 141.164 89.8104C135.185 89.8104 134.762 85.0494 134.55 82.933H153.296C154.156 92.4992 159.891 95.7354 167.201 95.7354C171.997 95.7354 177.581 93.5308 179.558 86.8162V94.9945H186.965V85.676C187.979 90.7085 191.258 95.7354 199.596 95.7354C206.216 95.7354 209.522 92.4042 211.114 89.2471C211.883 93.8249 215.756 95.7354 219.544 95.7354C224.572 95.7354 226.952 93.4086 228.647 91.661C228.806 93.2491 228.909 93.6711 229.333 94.9945H237.322V93.8837C236.424 93.567 235.683 92.8249 235.683 89.4914Z" fill="black"/>
<path fill-rule="evenodd" clip-rule="evenodd" d="M134.762 78.1174C135.185 74.4128 137.038 72.1901 140.529 72.1901C142.909 72.1901 145.82 73.5656 146.243 78.1174H134.762ZM166.566 72.1901C168.948 72.1901 171.858 73.5656 172.281 78.1174H160.8C161.223 74.4128 163.075 72.1901 166.566 72.1901ZM179.559 86.7402H171.963C171.381 88.7502 169.264 89.809 167.202 89.809C161.223 89.809 160.8 85.048 160.588 82.9316H179.559V86.7402ZM228.434 84.8885C228.434 88.3283 225.101 90.4425 221.819 90.4425C220.391 90.4425 218.381 89.6495 218.381 87.058C218.381 83.9892 220.655 83.3003 223.407 82.8252C226.476 82.3479 227.693 81.8728 228.433 81.2903V84.8885H228.434ZM225.84 77.5337L219.174 78.5393C215.345 79.0981 212.321 81.0584 211.325 84.7301H204.94C204.94 86.0536 203.67 89.6506 199.914 89.6506C194.307 89.6506 194.201 83.5661 194.201 80.4973C194.201 77.0066 195.416 72.3496 200.073 72.3496C203.512 72.1369 204.676 75.0474 204.993 76.9002H212.507C212.481 76.5817 212.445 76.2641 212.399 75.9478H219.016C219.229 74.3065 219.862 72.0317 223.567 72.0317C225.472 72.0317 228.434 72.1901 228.434 75.3121C228.434 76.9002 227.004 77.3753 225.84 77.5337Z" fill="white"/>
<path fill-rule="evenodd" clip-rule="evenodd" d="M285.799 81.6085C285.799 68.7517 278.126 66.106 272.572 66.106C260.245 66.106 259.08 76.9526 259.08 80.3382C259.08 80.8155 259.093 81.2725 259.115 81.7239C255.079 76.5827 243.628 78.1268 243.628 74.4664C243.628 73.2492 244.134 71.7142 247.985 71.7142C251.838 71.7142 252.445 73.6191 252.751 75.4177H259.693C259.134 67.4814 252.85 66.106 247.581 66.106C239.168 66.106 236.687 71.3975 236.687 75.524C236.687 86.0539 253.409 82.5077 253.409 87.2179C253.409 88.2767 252.547 90.1272 248.898 90.1272C244.44 90.1272 243.022 88.3819 243.022 86.0008H235.725C235.928 93.515 242.565 95.7344 248.698 95.7344C252.529 95.7344 259.175 94.5037 260.327 88.0855C262.499 93.6972 267.304 95.7344 273.101 95.7344C277.918 95.7344 283.525 93.5139 285.482 86.7405H277.865C277.281 88.7506 275.165 89.8094 273.101 89.8094C267.123 89.8094 266.701 85.0483 266.489 82.9319H285.8V81.6085H285.799Z" fill="black"/>
<path fill-rule="evenodd" clip-rule="evenodd" d="M266.699 78.1177C267.121 74.4132 268.973 72.1904 272.466 72.1904C274.847 72.1904 277.757 73.5659 278.182 78.1177H266.699Z" fill="white"/>
</svg>
