<svg width="372" height="152" viewBox="0 0 372 152" fill="none" xmlns="http://www.w3.org/2000/svg">
<path d="M184.244 44.0723C182.567 44.2786 180.812 44.6395 178.849 45.181C176.977 45.7095 174.351 46.8182 172.543 47.8623C172.114 48.1073 171.672 48.3522 171.568 48.4038C171.113 48.6229 169.241 49.9507 168.253 50.7629C167.291 51.5492 164.145 54.7849 163.43 55.726C162.078 57.505 160.96 59.2453 160.063 61.0114C159.218 62.6357 158.945 62.9967 158.438 63.0869C158.191 63.1385 157.827 63.2545 157.632 63.3447C157.437 63.4479 157.19 63.5252 157.073 63.5252C156.956 63.5252 156.67 63.667 156.449 63.8346C156.215 64.0022 155.864 64.1956 155.643 64.26C155.253 64.3889 155.253 64.3889 155.292 65.2397C155.344 66.0648 155.331 66.1035 154.993 66.2324C154.655 66.3613 154.655 66.3742 154.746 67.2379C154.798 67.7149 154.915 68.3208 155.006 68.6044C155.11 68.8751 155.188 69.2489 155.188 69.4165C155.188 69.597 155.279 70.1126 155.383 70.5638C155.487 71.015 155.669 71.7498 155.773 72.201C155.916 72.794 155.929 73.1421 155.838 73.4644C155.76 73.7093 155.708 74.3023 155.708 74.805C155.708 75.2949 155.656 75.7848 155.604 75.8621C155.513 75.991 155.175 75.991 153.94 75.8235C152.991 75.6945 152.068 75.6559 151.548 75.7074C150.235 75.8363 150.144 75.875 150.053 76.3262C149.97 76.689 149.879 77.0501 149.78 77.4091C149.611 78.0408 149.572 78.0794 149.078 78.1568C148.597 78.2341 148.558 78.2728 148.376 78.9045C148.259 79.2783 148.142 79.7295 148.103 79.9229C148.051 80.1678 147.973 80.258 147.843 80.2065C147.661 80.1291 146.218 77.422 146.218 77.1384C146.218 77.061 146.075 76.829 145.919 76.6227L145.62 76.2489L143.605 76.468C141.85 76.6614 141.577 76.7258 141.382 76.9708C141.252 77.1255 141.148 77.3446 141.148 77.4606C141.148 77.5767 141.031 77.9376 140.888 78.2728C140.667 78.7498 140.55 78.8658 140.29 78.8658C140.108 78.8658 139.835 79.0076 139.653 79.201C139.328 79.549 138.808 80.5159 138.808 80.7737C138.808 80.8639 138.73 80.9284 138.652 80.9284C138.548 80.9284 138.288 80.3225 138.028 79.5361C137.781 78.7756 137.482 77.9118 137.352 77.6024L137.131 77.061H136.247C135.168 77.0739 132.919 77.6282 132.243 78.0536C132.1 78.1439 131.918 78.2212 131.827 78.2212C131.723 78.2212 131.411 78.3759 131.125 78.5564C130.592 78.8787 130.592 78.9045 130.67 79.4717C130.761 80.1291 130.592 80.5417 130.241 80.5417C130.111 80.5417 129.929 80.619 129.851 80.7221C129.76 80.8253 129.565 80.9413 129.396 80.98C128.785 81.1346 128.824 81.4183 129.916 84.9891C130.02 85.3372 130.163 85.8013 130.228 86.0204C130.371 86.549 130.618 87.2322 130.826 87.735C130.93 87.967 131.008 88.2506 131.008 88.3795C131.008 88.4955 131.099 88.7147 131.203 88.8436C131.307 88.9854 131.398 89.2046 131.398 89.3206C131.398 89.4495 131.476 89.7073 131.58 89.9136C131.684 90.107 131.957 90.7386 132.178 91.3058C133.192 93.8325 134.245 95.8564 134.908 96.5397C135.025 96.6557 135.558 96.8104 136.234 96.9135C137.898 97.1585 139.562 96.9135 141.083 96.1916C141.356 96.0627 141.551 95.8178 141.707 95.3924C142.11 94.374 142.227 94.1935 142.591 94.0001C142.786 93.9099 143.085 93.5876 143.241 93.304C143.41 93.0204 143.579 92.7883 143.631 92.7883C143.683 92.7883 143.852 93.0333 144.008 93.3298C144.281 93.8583 144.957 94.8896 145.373 95.4182C145.581 95.7018 146.205 95.8307 147.882 95.9596C149.13 96.0498 149.156 96.0498 151.418 95.4053C151.808 95.3021 152.211 95.1861 152.289 95.1603C152.38 95.1345 152.458 95.0056 152.458 94.8638C152.458 94.4384 152.692 94.4255 153.212 94.8123C153.797 95.2506 154.148 95.4697 154.408 95.5728C154.512 95.6115 154.824 95.7404 155.084 95.8436C155.422 95.9854 156.085 96.0498 157.489 96.0627L159.413 96.0756L160.323 95.6115C160.83 95.3537 161.298 95.1732 161.389 95.199C161.467 95.2248 161.883 95.676 162.299 96.1787C162.715 96.6944 163.118 97.1585 163.196 97.2358C163.274 97.3003 163.599 97.7128 163.924 98.1382C164.561 98.9632 165.9 100.278 166.953 101.103C167.317 101.387 167.681 101.696 167.785 101.786C168.019 102.006 169.878 103.256 170.749 103.772C171.269 104.081 174.494 105.641 175.079 105.873C175.404 105.989 175.807 106.144 175.963 106.208C177.575 106.827 180.097 107.446 182.45 107.807C184.231 108.064 188.417 108.064 190.198 107.807C193.123 107.368 195.71 106.698 197.699 105.834C197.946 105.731 198.336 105.576 198.544 105.486C202.041 104.017 206.032 101.206 208.359 98.5765C208.827 98.048 209.282 97.5452 209.386 97.4421C209.516 97.3003 209.971 97.2358 211.076 97.21C211.908 97.1842 213.26 97.0682 214.079 96.9393L215.574 96.7202L215.613 96.1787C215.639 95.7662 215.717 95.6115 215.912 95.56C216.068 95.5084 216.263 95.2763 216.367 95.0314C216.653 94.3482 217.108 94.4255 217.875 95.2635C219.279 96.8362 219.214 96.7846 219.89 96.7846C220.228 96.7717 220.657 96.6944 220.839 96.5913C221.021 96.4881 221.372 96.4108 221.632 96.3979C222.1 96.3979 222.113 96.4108 222.191 96.9651C222.243 97.2745 222.36 97.6097 222.464 97.687C222.854 98.0093 230.238 97.5968 230.797 97.2358C231.005 97.1069 231.109 96.8877 231.135 96.5655L231.174 96.0756L232.188 96.0369L233.202 95.9983L233.397 95.56C233.501 95.315 233.579 94.9669 233.579 94.7994C233.579 94.0259 234.216 93.4587 234.736 93.781C234.97 93.9228 235.36 94.8896 235.542 95.7275C235.75 96.7331 235.815 96.7846 236.855 96.7846C237.96 96.7846 239.442 96.3979 240.339 95.8693C240.443 95.8049 240.651 95.7018 240.794 95.6373C241.262 95.431 241.431 95.1217 241.392 94.49C241.366 93.897 241.379 93.8841 241.951 93.5876C242.263 93.42 242.653 93.1493 242.809 92.9946C243.095 92.6723 243.069 92.3629 242.666 91.2414C242.432 90.5839 241.847 89.2046 241.626 88.7663C241.457 88.4311 241.47 88.3666 242.003 87.49C242.51 86.6263 242.809 85.7239 242.809 85.0149C242.809 84.3317 242.471 83.3004 242.081 82.7461C241.704 82.2304 240.664 81.5214 239.819 81.212C238.467 80.7092 235.971 80.3483 232.903 80.1936L231.785 80.1291L231.538 80.6963C231.395 80.9928 231.239 81.4054 231.2 81.5987C231.148 81.7921 231.005 82.0113 230.875 82.0757C230.602 82.2175 224.167 82.5398 223.959 82.4109C223.881 82.3593 223.842 82.2304 223.881 82.1273C224.037 81.7276 223.725 81.4698 222.958 81.3796C222.542 81.3409 221.749 81.212 221.203 81.1089C219.89 80.851 219.396 80.9026 219.201 81.3022C219.11 81.4698 218.837 81.805 218.564 82.0628C218.304 82.3078 217.94 82.7718 217.758 83.0812C217.303 83.8676 217.069 83.6484 217.368 82.7074C217.654 81.7792 217.927 80.387 218.187 78.5693C218.356 77.3575 218.395 76.5325 218.33 74.4441C218.278 73.0132 218.213 71.6854 218.161 71.5049C218.096 71.2342 218.213 71.0279 218.785 70.3447C219.877 69.0427 222.529 65.5362 222.529 65.3815C222.529 65.2655 221.684 64.5952 221.073 64.2342C219.747 63.4479 218.33 62.7775 217.797 62.6744C217.329 62.597 217.251 62.6228 216.991 62.9451C216.601 63.4221 216.25 63.2932 215.886 62.5197C214.95 60.4958 214.079 58.8972 213.611 58.2785C213.442 58.0593 213.299 57.8402 213.299 57.8015C213.299 57.7241 212.441 56.5382 211.765 55.6615C210.712 54.3209 208.294 51.8457 206.929 50.7113C205.863 49.8347 204.173 48.6358 203.679 48.4038C203.575 48.3522 203.315 48.1975 203.094 48.0686C202.392 47.6174 199.779 46.3799 198.648 45.9416C197.257 45.413 197.244 45.413 194.969 44.7942C194.072 44.5493 192.811 44.3044 191.719 44.1626C190.419 43.995 185.414 43.9434 184.244 44.0723ZM191.953 45.5548C192.408 45.6579 192.928 45.7353 193.11 45.7353C193.305 45.7353 193.773 45.8255 194.176 45.9416C194.579 46.0447 195.229 46.2252 195.619 46.3412C196.009 46.4443 196.529 46.6119 196.763 46.715C196.997 46.8182 197.27 46.8955 197.374 46.8955C197.478 46.8955 197.777 46.9857 198.05 47.1018C198.323 47.2178 198.726 47.3983 198.934 47.4885C199.441 47.6948 202.041 48.971 202.418 49.1901C203.315 49.7058 205.187 50.982 205.46 51.2527C205.59 51.3817 205.993 51.7039 206.344 51.9875C209.035 54.0759 212.441 58.4074 214.053 61.7849C214.287 62.2748 214.573 62.8549 214.677 63.0482C214.781 63.2545 214.859 63.4994 214.859 63.6154C214.859 63.7186 214.963 63.9764 215.08 64.1827C215.301 64.5436 215.301 64.5694 214.872 65.3944C214.625 65.8585 214.378 66.2195 214.3 66.1937C214.105 66.1292 213.728 64.8014 213.624 63.8217C213.468 62.3263 213.468 62.3263 212.233 62.3779C211.076 62.4295 211.141 62.4681 210.569 61.3982C210.27 60.8309 209.217 59.2324 208.983 59.0004C208.892 58.8972 208.489 58.4074 208.086 57.9175C207.124 56.7315 204.485 54.1662 203.419 53.3798C202.314 52.5548 201.352 51.9231 201.222 51.9231C201.157 51.9231 201.053 51.8457 200.975 51.7555C200.767 51.5106 198.232 50.2859 196.919 49.796C196.594 49.68 196.139 49.4995 195.905 49.3964C195.671 49.2933 195.372 49.2159 195.229 49.2159C195.086 49.2159 194.748 49.1386 194.488 49.0354C193.825 48.8034 191.901 48.494 189.834 48.2878C187.728 48.0944 187.52 48.0944 185.284 48.2878C181.059 48.6616 177.393 49.8476 173.974 51.9618C172.882 52.6321 170.385 54.5787 169.41 55.494C167.876 56.9636 165.861 59.4129 164.99 60.8825C164.366 61.9396 164.327 62.0169 163.976 62.726C163.625 63.4608 163.456 63.4994 163.339 62.8806C163.235 62.4166 163.105 62.3908 161.792 62.5326C161.064 62.6228 161.038 62.6099 161.038 62.3263C161.038 62.0427 161.623 60.8438 162.234 59.8512C162.364 59.6321 162.507 59.3742 162.559 59.2711C162.598 59.168 162.806 58.8715 163.014 58.6136C163.209 58.3558 163.378 58.098 163.378 58.0593C163.378 57.8917 164.678 56.2674 165.848 54.9525C167.837 52.7352 170.164 50.8273 172.947 49.1257C173.389 48.855 175.508 47.8366 176.249 47.5401C176.639 47.3854 177.12 47.1791 177.315 47.076C177.497 46.9728 177.744 46.8955 177.861 46.8955C177.965 46.8955 178.251 46.8182 178.485 46.715C179.252 46.3927 180.812 45.9931 182.879 45.5935C184.66 45.2454 190.419 45.2196 191.953 45.5548ZM191.459 49.0741C193.253 49.3191 196.035 50.0023 196.334 50.2601C196.399 50.3246 196.568 50.3761 196.698 50.3761C196.828 50.3761 197.101 50.4535 197.283 50.5566C197.478 50.6469 198.219 51.0078 198.934 51.3559C201.326 52.5161 203.51 54.063 205.512 56.0354C207.488 57.9949 209.334 60.354 210.348 62.2103L210.569 62.6228L210.153 62.8806C209.919 63.0224 209.594 63.1385 209.438 63.1385C209.282 63.1385 209.126 63.19 209.074 63.2545C209.035 63.3189 208.814 63.4221 208.58 63.4736C208.359 63.5123 207.839 63.7186 207.449 63.9248C207.059 64.1182 206.63 64.3116 206.513 64.3502C206.331 64.4018 206.279 64.5565 206.279 65.0593V65.7038L205.278 65.6909C203.328 65.6652 201.209 66.1937 199.74 67.0445C199.389 67.2508 199.012 67.3926 198.895 67.3539C198.765 67.3152 198.284 67.1348 197.803 66.9672C196.061 66.3097 193.5 66.3871 191.979 67.1219C190.913 67.6375 190.562 67.8438 190.38 68.0243C190.107 68.295 189.782 68.1661 189.08 67.4699C187.871 66.271 185.661 65.4589 183.568 65.4589H182.489V63.6541L182.008 63.4479C180.643 62.8678 178.394 62.365 177.211 62.365C176.535 62.365 176.34 62.4166 176.119 62.6486C175.976 62.8033 175.859 62.9709 175.859 63.0225C175.859 63.074 175.625 63.1385 175.326 63.1643C174.832 63.2029 174.78 63.2416 174.533 63.8475C174.156 64.7628 173.61 66.2324 173.467 66.6707C173.311 67.1476 173.155 66.8254 172.153 63.7701C172.049 63.435 171.958 63.074 171.958 62.9709C171.958 62.8549 171.867 62.6744 171.75 62.5713C171.581 62.4037 171.191 62.365 169.488 62.365H167.421L167.252 62.7131C167.122 62.9967 166.979 63.0869 166.602 63.1127C166.225 63.1514 166.043 63.2545 165.757 63.6283C165.185 64.376 164.665 65.3171 164.483 65.9617L164.379 66.2839L164.145 66.0003C164.015 65.8327 163.872 65.4589 163.833 65.1495C163.755 64.6467 163.82 64.4405 164.418 63.2545C164.782 62.5197 165.159 61.7978 165.25 61.656C165.588 61.0759 166.173 60.1993 166.589 59.6578C167.382 58.5879 167.603 58.33 168.162 57.7113C168.461 57.3761 168.825 56.9636 168.981 56.7702C169.215 56.4737 170.879 54.9654 171.711 54.308C172.361 53.7923 174.364 52.4258 174.689 52.2711C174.793 52.2196 175.092 52.052 175.339 51.9102C176.288 51.3559 178.342 50.3761 178.589 50.3761C178.654 50.3761 178.901 50.2988 179.135 50.1957C180.084 49.796 182.125 49.3062 183.724 49.087C184.374 49.0097 184.985 48.9194 185.089 48.8936C185.505 48.7905 190.419 48.9323 191.459 49.0741ZM171.191 63.1385C171.308 63.2029 171.503 63.6154 171.62 64.0666C171.945 65.2913 172.036 65.5878 172.348 66.3613C172.505 66.748 172.674 67.2121 172.726 67.3926C172.843 67.7535 173.415 69.0427 173.714 69.6228C173.818 69.829 173.909 70.074 173.909 70.1642C173.909 70.3962 174.416 70.6798 174.546 70.5252C174.663 70.4091 174.975 69.3778 175.274 68.1661C175.391 67.702 175.56 67.0574 175.664 66.7351C175.768 66.4 175.859 66.039 175.859 65.9101C175.859 65.7812 175.95 65.4202 176.054 65.0851C176.158 64.7628 176.314 64.2213 176.392 63.8733C176.47 63.5381 176.6 63.2287 176.678 63.1771C176.743 63.1385 177.276 63.1127 177.861 63.1256C178.966 63.1514 180.006 63.3705 181.163 63.8217C181.8 64.0795 181.839 64.1182 181.839 64.5436C181.839 65.3815 181.709 65.5749 180.981 65.923C180.305 66.2453 178.888 67.5344 178.524 68.1789C178.043 69.0169 177.51 70.19 177.289 70.9119C176.678 72.8456 177.094 75.2691 178.264 76.6098C178.459 76.8161 178.576 77.0739 178.537 77.1899C178.108 78.5693 177.913 78.8916 177.354 79.1365C176.704 79.433 175.053 79.4588 174.039 79.1881C173.649 79.0849 173.103 78.9947 172.83 78.9947C172.465 78.9947 172.257 78.9045 172.023 78.6595C171.711 78.3244 170.996 76.9579 170.775 76.2875C170.723 76.1071 170.554 75.643 170.398 75.2562C170.242 74.8695 170.086 74.3925 170.047 74.1992C169.969 73.7995 169.696 73.5288 169.462 73.6191C169.371 73.6448 169.189 74.0445 169.046 74.4957C168.591 76.0684 168.136 77.177 167.538 78.1439C167.174 78.7369 166.979 78.9302 166.576 79.0592C166.303 79.1623 166.004 79.201 165.913 79.1752C165.822 79.1365 164.847 79.0721 163.729 79.0205C161.922 78.9302 161.675 78.8916 161.493 78.6724C161.246 78.3372 160.453 76.7516 160.219 76.0942C159.569 74.2894 158.958 72.2784 158.529 70.5509C158.425 70.1255 158.256 69.481 158.178 69.1329C158.087 68.7719 157.97 68.2305 157.918 67.9082C157.866 67.586 157.762 67.0703 157.684 66.748C157.606 66.4257 157.476 65.7425 157.385 65.214C157.229 64.3245 157.242 64.26 157.463 64.0924C157.593 63.9893 157.814 63.9119 157.944 63.9119C158.087 63.9119 158.373 63.8217 158.581 63.7057C158.854 63.5768 159.14 63.5381 159.478 63.5897C159.816 63.6412 160.102 63.6026 160.388 63.4608C160.609 63.3447 161.194 63.2158 161.662 63.1771C162.689 63.0869 162.806 63.1771 162.988 64.1311C163.092 64.7241 163.3 65.7038 163.638 67.0703C163.729 67.4184 163.872 68.0371 163.963 68.4239C164.483 70.6154 164.574 70.9506 164.691 71.0537C164.86 71.2342 165.289 70.7959 165.367 70.3834C165.406 70.19 165.562 69.713 165.718 69.3263C165.874 68.9395 166.043 68.4368 166.108 68.2305C166.173 68.0114 166.342 67.5215 166.498 67.1348C166.654 66.748 166.823 66.2453 166.888 66.039C166.953 65.8198 167.122 65.33 167.278 64.9432C167.434 64.5565 167.603 64.0409 167.668 63.8088C167.824 63.19 168.019 63.0224 168.617 62.9838C169.449 62.9193 170.957 63.0224 171.191 63.1385ZM212.883 63.5252C212.922 64.0666 213.364 65.8585 213.611 66.4902C214.248 68.1918 214.443 68.2692 215.327 67.1605C215.652 66.7609 215.951 66.3355 216.003 66.2324C216.042 66.1292 216.198 65.8585 216.367 65.6523C216.523 65.4331 216.809 64.9175 217.004 64.4921C217.589 63.2287 217.602 63.2287 218.538 63.6154C218.98 63.8088 219.435 64.028 219.552 64.1311C219.656 64.2213 219.799 64.2987 219.851 64.2987C219.916 64.2987 220.215 64.4663 220.54 64.6854C220.852 64.8917 221.164 65.0722 221.229 65.0722C221.411 65.0722 221.645 65.5749 221.541 65.7554C221.424 65.9359 219.903 67.8953 218.733 69.3778C218.187 70.0611 217.784 70.4349 217.55 70.4994C217.056 70.6283 216.809 70.8474 216.809 71.1568C216.809 71.2986 216.64 71.5822 216.419 71.7756C216.042 72.1237 216.029 72.1752 216.029 73.3483C216.029 74.0058 215.964 74.9855 215.886 75.5141C215.821 76.0426 215.704 76.945 215.639 77.5122C215.587 78.0794 215.457 78.7111 215.366 78.9174C215.197 79.2783 215.171 79.2783 214.469 79.201C214.079 79.1494 213.169 79.0849 212.454 79.0334C210.738 78.9302 210.699 78.9045 210.699 77.9763C210.699 77.2931 210.751 77.1641 211.206 76.5969C211.479 76.2489 211.778 75.8235 211.882 75.643C212.246 74.9597 212.506 73.6319 212.519 72.4202C212.519 69.9322 211.375 67.7922 209.529 66.8254C209.204 66.6578 208.879 66.3871 208.801 66.2195C208.515 65.6394 208.19 64.4534 208.281 64.3116C208.333 64.2342 208.645 64.0924 208.983 63.9893C209.321 63.8862 209.919 63.667 210.309 63.5123C210.959 63.2545 212.168 63.0224 212.649 63.0611C212.779 63.074 212.857 63.2416 212.883 63.5252ZM185.934 66.4386C187.806 67.0058 189.041 67.9985 189.808 69.5712C190.159 70.306 190.224 70.5896 190.263 71.6725C190.315 73.1163 190.146 73.8769 189.431 75.3465C188.885 76.4551 187.676 77.6411 186.688 78.0021C186.35 78.131 185.843 78.3372 185.583 78.4404C185.193 78.608 184.803 78.6337 183.763 78.5693C181.982 78.4662 181.41 78.2599 179.954 77.2028C178.862 76.3907 178.576 76.0684 178.017 74.934C177.666 74.212 177.64 71.5822 177.978 70.8088C179.447 67.5215 180.539 66.3871 182.424 66.2195C183.633 66.1035 185.141 66.1937 185.934 66.4386ZM207.28 66.5547C207.592 66.6578 207.943 66.7996 208.06 66.864C208.19 66.9285 208.593 67.1219 208.944 67.2766C210.387 67.934 211.544 69.597 211.752 71.3244C211.882 72.4717 211.778 73.9929 211.518 74.7406C210.933 76.3649 209.256 77.7056 206.929 78.3888C205.785 78.724 203.809 79.0205 202.925 78.9689L202.093 78.9302L201.859 78.1568C201.313 76.352 201.209 75.991 201.209 75.7332C201.209 75.5785 201.118 75.0242 201.014 74.4828C200.806 73.3999 200.481 70.5123 200.364 68.7204C200.286 67.5731 200.286 67.5344 200.585 67.341C200.962 67.0961 201.833 66.8125 203.224 66.4902C204.42 66.2066 206.344 66.2453 207.28 66.5547ZM196.789 67.3281C197.738 67.5602 198.453 67.8309 198.635 68.0114C198.726 68.1016 198.856 68.1661 198.934 68.1661C199.012 68.1661 199.207 68.295 199.363 68.4626C199.597 68.7075 199.675 69.0556 199.844 70.6154C200.104 73.0776 200.416 75.3336 200.572 75.9266C200.767 76.6614 200.247 77.4606 198.973 78.4146L198.193 78.9947H195.216C192.421 78.9947 192.213 78.9818 191.706 78.7111C191.03 78.363 190.12 77.4735 189.834 76.8805C189.626 76.4551 189.626 76.4165 190.003 75.6817C190.536 74.6632 190.861 73.5288 191.017 72.2784C191.082 71.7498 191.03 71.2986 190.822 70.5123C190.679 69.9322 190.549 69.3649 190.549 69.2489C190.549 68.9782 191.537 68.0243 192.122 67.7149C193.188 67.1734 195.45 66.9801 196.789 67.3281ZM217.069 74.9082C217.069 76.2102 216.731 79.7553 216.562 80.1936C216.484 80.3998 216.419 80.7221 216.419 80.9284C216.419 81.689 216.393 81.7019 214.768 81.7019H213.26L213.338 81.2249C213.429 80.7092 213.598 80.5417 214.079 80.5417C214.261 80.5417 214.508 80.3998 214.664 80.2194C214.82 80.0131 215.093 79.8584 215.366 79.8326C215.847 79.7682 216.029 79.6006 216.029 79.1881C216.029 79.0463 216.107 78.5177 216.211 78.0279C216.315 77.5251 216.432 76.4809 216.484 75.7074C216.536 74.9211 216.627 74.1863 216.705 74.0574C216.926 73.6448 217.069 73.9671 217.069 74.9082ZM154.252 76.5067C155.266 76.7001 155.539 76.8032 155.916 77.1384C156.358 77.538 156.358 77.5638 156.28 78.3115C156.228 78.724 156.085 79.2912 155.955 79.5619C155.812 79.8455 155.708 80.2194 155.708 80.387C155.708 80.5932 155.5 80.8768 155.084 81.2507C154.499 81.7792 153.537 83.0683 153.082 83.9578C151.691 86.6263 151.756 89.0112 153.277 90.9964C153.68 91.5508 153.719 91.8859 153.407 92.2469C152.887 92.8141 151.86 92.9946 149.182 92.943C147.999 92.9172 147.882 92.8915 147.505 92.5563C146.972 92.0793 146.4 91.0996 145.451 88.9854C144.892 87.7479 144.853 87.6963 144.58 87.6963C144.411 87.6963 144.32 87.8252 144.255 88.1475C144.138 88.8049 143.878 89.8105 143.67 90.4035C143.566 90.7 143.488 90.9965 143.488 91.0738C143.488 91.164 143.267 91.6926 143.007 92.2598C142.344 93.6778 142.318 93.6907 139.302 93.6907H136.923L136.533 93.0719C135.948 92.1696 135.831 91.9762 135.688 91.6539C135.623 91.4863 135.415 91.0222 135.233 90.6226C134.557 89.1401 134.466 88.9081 133.946 87.5287C133.608 86.6134 133.322 85.8915 133.14 85.4661C133.036 85.2341 132.958 84.9633 132.958 84.8602C132.958 84.7571 132.88 84.4864 132.776 84.2543C132.503 83.5969 132.295 82.9781 132.178 82.4753C132.126 82.2304 132.009 81.8437 131.944 81.6374C131.528 80.4385 131.398 79.9229 131.398 79.549C131.398 79.1623 131.463 79.0978 132.204 78.7627C133.439 78.1954 134.765 77.8474 135.805 77.8087L136.741 77.77L137.196 79.1236C137.443 79.8713 137.703 80.6448 137.781 80.8639C137.859 81.0702 137.963 81.4183 138.028 81.6374C138.093 81.8437 138.262 82.3464 138.418 82.7332C138.574 83.1199 138.743 83.6227 138.795 83.8289C138.938 84.409 139.185 84.7958 139.393 84.7958C139.562 84.7958 139.77 84.3188 140.16 82.9523C140.277 82.5527 140.459 81.8823 140.576 81.4698C140.693 81.0702 140.875 80.503 140.966 80.2194C141.07 79.9229 141.148 79.6006 141.148 79.4846C141.148 79.2783 141.252 78.9947 141.798 77.7571L142.032 77.2286L143.046 77.1513C143.592 77.0997 144.359 77.061 144.723 77.061H145.412L145.802 77.8603C146.621 79.5619 146.764 79.8584 147.193 80.6061C147.427 81.0315 147.778 81.6632 147.973 82.0241C148.155 82.3722 148.402 82.8234 148.506 83.0168C148.714 83.3906 149.182 83.5066 149.26 83.2101C149.312 82.991 149.65 81.4569 149.923 80.2194C150.04 79.6522 150.222 78.8529 150.326 78.4533C150.43 78.0407 150.508 77.5122 150.508 77.2802C150.508 76.829 150.703 76.4938 151.028 76.3778C151.444 76.2231 153.095 76.3004 154.252 76.5067ZM158.75 78.0923C158.802 78.1954 159.036 78.6595 159.283 79.1107C159.53 79.5619 159.725 79.9487 159.712 79.9615C159.569 80.0647 158.997 80.1291 158.88 80.0518C158.672 79.9229 158.269 78.015 158.386 77.6798C158.477 77.3962 158.477 77.3962 158.581 77.6411C158.633 77.7829 158.711 77.9892 158.75 78.0923ZM168.994 77.6669C169.124 77.7829 169.228 77.9505 169.228 78.0408C169.228 78.131 169.41 78.5048 169.618 78.8658C169.839 79.2267 169.982 79.5877 169.943 79.6522C169.891 79.7166 169.423 79.7682 168.903 79.7682C168.331 79.7682 167.707 79.8584 167.382 79.9744C166.407 80.3354 165.146 80.98 164.561 81.4183C163.924 81.8823 163.716 81.8694 163.027 81.3409C162.338 80.8382 162.468 80.735 163.937 80.5932C165.107 80.4772 165.406 80.3998 166.394 79.91C167.044 79.5877 167.629 79.201 167.759 79.0076C168.149 78.4275 168.305 78.1697 168.461 77.7958C168.63 77.3833 168.669 77.3704 168.994 77.6669ZM188.339 78.3244C188.339 78.5048 189.405 79.5104 189.808 79.7166C190.003 79.8197 190.133 79.9615 190.094 80.0131C190.042 80.1162 188.963 80.3225 186.688 80.6835C186.142 80.7608 185.609 80.9284 185.427 81.0702C185.258 81.1991 185.05 81.3151 184.959 81.3151C184.881 81.3151 184.647 81.4054 184.439 81.5085C184.166 81.6503 184.049 81.805 184.049 82.037C184.049 82.4367 183.724 82.5785 183.412 82.2949C183.282 82.1788 183.1 82.0886 182.996 82.0886C182.892 82.0886 182.697 82.0113 182.554 81.921C181.384 81.1733 177.406 80.8897 176.938 81.5214C176.808 81.7019 176.561 81.7921 175.508 82.0499C175.3 82.1015 175.118 81.9984 174.793 81.6245C174.559 81.3667 174.286 81.0702 174.195 80.9671C173.935 80.7221 174.13 80.5417 174.663 80.5417C175.261 80.5288 176.925 80.142 177.172 79.9487C177.276 79.8713 177.51 79.7682 177.692 79.7295C177.887 79.6779 178.212 79.4588 178.433 79.2396L178.836 78.8271L179.2 79.0721C179.707 79.4072 180.227 79.6264 181.033 79.8455C182.619 80.258 184.439 79.91 186.649 78.7627C187.559 78.2857 188.339 78.0794 188.339 78.3244ZM208.723 79.317C208.775 80.0389 208.879 80.1549 209.529 80.1549C209.776 80.1549 210.075 80.2065 210.166 80.2709C210.4 80.4256 210.309 80.4385 207.995 80.735C206.318 80.9413 205.694 81.1346 204.784 81.7019C203.549 82.4753 203.458 82.5011 202.665 82.2949C201.391 81.9726 199.207 81.7019 197.907 81.7019H196.659L196.204 81.212C195.619 80.5803 195.619 80.4127 196.243 80.4127C196.737 80.4127 197.491 80.1291 197.634 79.8842C197.686 79.8197 197.803 79.7682 197.907 79.7682C198.011 79.7682 198.453 79.5361 198.895 79.2525C199.324 78.9818 199.727 78.7756 199.779 78.8013C199.831 78.84 199.948 79.1236 200.026 79.433C200.104 79.7553 200.234 80.0518 200.312 80.1034C200.702 80.3354 205.473 79.9229 206.136 79.5877C206.318 79.4975 206.708 79.317 206.994 79.1881C207.28 79.072 207.657 78.8916 207.839 78.7884C208.021 78.6853 208.281 78.6209 208.424 78.6466C208.632 78.6724 208.697 78.7884 208.723 79.317ZM170.905 80.4772C171.997 80.5545 173.051 80.9413 173.844 81.5472C174.273 81.8952 175.469 83.3906 175.469 83.5969C175.469 83.7 175.56 83.9063 175.677 84.0739C176.184 84.8602 176.08 88.0315 175.495 89.3206C175.079 90.2616 173.766 91.6797 172.973 92.0664C172.309 92.3758 172.231 92.3887 170.918 92.2727C170.164 92.2082 168.929 92.1567 168.175 92.1438C166.979 92.1438 166.719 92.1051 166.277 91.8473C165.263 91.2801 164.405 90.3648 164.041 89.4495C163.924 89.1788 163.833 88.3924 163.807 87.5287C163.768 86.3556 163.807 85.8657 164.028 84.9505C164.184 84.3317 164.366 83.7774 164.431 83.7C164.496 83.6356 164.548 83.4809 164.548 83.3519C164.548 82.7461 165.939 81.2507 166.888 80.8382C167.421 80.5932 169.02 80.3096 169.488 80.3612C169.67 80.387 170.307 80.4385 170.905 80.4772ZM212.818 80.6577C212.961 80.7995 212.545 81.7019 212.298 81.7921C212.181 81.8437 212.025 81.7792 211.921 81.6374C211.726 81.3796 211.674 80.6448 211.83 80.4901C211.934 80.3998 212.662 80.5159 212.818 80.6577ZM160.518 80.9155C160.843 80.98 161.311 81.1089 161.558 81.212C162.143 81.4311 163.742 82.5914 163.833 82.8492C163.885 83.0554 163.781 83.5969 163.534 84.3446C162.767 86.6005 162.832 88.5213 163.703 90.2488L164.015 90.8546L163.469 91.3832C162.325 92.5047 162.182 92.595 160.973 93.059C160.154 93.3684 157.905 93.4071 157.242 93.1235C157.008 93.0204 156.722 92.9044 156.618 92.8657C156.514 92.8141 156.254 92.6723 156.033 92.5305C155.825 92.3887 155.552 92.234 155.448 92.1824C154.915 91.9375 153.641 90.5324 153.251 89.7589C152.874 88.9854 152.848 88.8307 152.848 87.5932C152.848 85.8013 153.16 84.9376 154.525 82.9007C155.136 81.9984 155.929 81.3151 156.397 81.3151C156.579 81.3151 156.852 81.212 157.008 81.0831C157.242 80.9026 157.463 80.851 157.918 80.9026C158.321 80.9413 158.568 80.9026 158.633 80.7995C158.737 80.6319 159.348 80.6706 160.518 80.9155ZM193.474 80.8768C194.267 80.9284 195.008 81.0186 195.125 81.0702C195.411 81.2249 196.412 82.5398 196.698 83.1586C197.01 83.8418 196.997 85.5821 196.672 86.2911C196.36 86.9744 195.658 87.6705 194.943 87.9928C194.319 88.2764 192.642 88.6631 192.044 88.6631C191.823 88.6631 191.511 88.7534 191.342 88.8694C191.043 89.0757 191.043 89.1143 191.147 90.5195C191.316 92.9044 191.29 93.8325 191.069 93.9485C190.198 94.3997 187.988 94.6318 187.416 94.3353C187.273 94.245 187.169 94.0646 187.169 93.8454C187.169 93.6521 187.078 93.1751 186.974 92.7883C186.727 91.8731 186.727 90.7128 186.974 90.1198C187.104 89.8105 187.169 89.2175 187.169 88.2893C187.169 86.7681 186.987 86.1236 186.233 84.9118C185.843 84.2801 185.817 84.1512 185.843 83.1844C185.869 81.7921 185.999 81.3925 186.402 81.3538C186.766 81.3151 188.859 80.9928 189.899 80.8124C190.289 80.7479 190.939 80.7092 191.329 80.7479C191.719 80.7737 192.694 80.8382 193.474 80.8768ZM236.244 81.1347C238.22 81.3538 238.948 81.5343 240.157 82.1144C241.093 82.5527 241.652 83.107 241.951 83.8676C242.211 84.5508 242.224 85.6466 241.964 86.1365C241.86 86.3298 241.769 86.549 241.769 86.6134C241.769 86.665 241.535 87.0517 241.249 87.4514C240.963 87.8639 240.729 88.2377 240.729 88.2893C240.729 88.3537 240.937 88.8307 241.184 89.3464C241.951 90.9964 242.328 92.1696 242.211 92.5692C242.107 92.9044 240.404 93.6263 239.26 93.8067C238.103 93.9872 237.934 93.9228 237.83 93.2653C237.752 92.711 237.531 92.1309 237.011 91.0867C236.413 89.8878 236.049 89.269 235.867 89.0757C235.62 88.8307 235.295 89.1917 235.204 89.7976C235.165 90.0554 235.048 90.6484 234.944 91.1125C234.84 91.5766 234.749 92.0922 234.749 92.2727C234.749 92.6723 234.645 92.8399 234.268 93.0333C233.904 93.2266 232.838 93.2137 232.721 93.0204C232.669 92.943 232.565 92.5176 232.487 92.0922L232.344 91.3058H231.434C230.55 91.3058 230.524 91.293 230.485 90.9707C230.446 90.6613 230.498 90.6226 230.953 90.5453C231.564 90.455 231.629 90.3261 231.629 89.269C231.629 87.7865 231.499 87.1549 231.161 86.9744C230.953 86.8713 230.849 86.7037 230.849 86.4587C230.849 85.8657 230.979 85.6982 231.434 85.6982C231.668 85.6982 231.928 85.6208 232.006 85.5177C232.188 85.2985 232.084 83.0554 231.863 82.3078C231.746 81.9468 231.759 81.7792 231.863 81.6761C231.954 81.5858 232.019 81.4311 232.019 81.3151C232.019 80.7479 232.461 80.7221 236.244 81.1347ZM211.154 81.3151C211.245 81.5987 211.297 84.2543 211.206 84.3317C211.18 84.3703 210.491 84.4348 209.698 84.4864C208.385 84.5637 208.216 84.6024 207.878 84.9118C206.864 85.8271 206.812 87.4514 207.735 88.6502C208.073 89.0886 208.918 89.4366 209.646 89.4366C210.322 89.4366 211.427 89.1143 211.765 88.8307C211.882 88.7276 212.038 88.676 212.103 88.7147C212.181 88.7534 212.389 89.2948 212.584 89.9265C212.779 90.5453 212.987 91.1769 213.052 91.3445C213.208 91.7441 213.013 92.0277 212.207 92.4789C211.206 93.0462 210.66 93.1751 208.931 93.2653C207.293 93.3427 206.656 93.2266 205.382 92.5821C204.771 92.2727 203.887 91.3832 203.536 90.7C203.263 90.1972 203.237 90.0038 203.276 88.7147C203.315 87.3224 203.315 87.2838 202.99 87.0775C202.717 86.897 202.678 86.8068 202.756 86.4458C202.847 86.0333 202.86 86.0204 203.575 85.9818L204.29 85.9431L204.381 85.2727C204.42 84.8989 204.459 84.2801 204.459 83.8934C204.459 82.8363 204.55 82.6558 205.291 82.1788C206.058 81.6632 207.332 81.3151 208.437 81.3022C208.853 81.3022 209.438 81.2507 209.724 81.1991C210.673 81.0057 211.063 81.0315 211.154 81.3151ZM222.295 81.9468C222.711 82.037 223.075 82.1531 223.114 82.2175C223.192 82.3335 222.763 83.7774 222.451 84.5122C222.347 84.7442 222.269 85.0149 222.269 85.118C222.269 85.2083 222.191 85.4532 222.087 85.6595C221.216 87.3869 221.216 87.3611 222.087 88.6245C222.399 89.0757 222.659 89.4882 222.659 89.5269C222.659 89.5655 222.841 89.8105 223.049 90.0812C223.27 90.3519 223.439 90.6097 223.439 90.6613C223.439 90.7 223.712 91.0867 224.037 91.5121C224.362 91.9375 224.609 92.3758 224.583 92.4918C224.531 92.7626 222.841 93.6005 222.074 93.7294C221.866 93.7681 221.593 93.8325 221.489 93.8841C221.242 93.9743 220.592 93.3942 219.851 92.4661C219.578 92.1051 219.305 91.7957 219.266 91.757C219.149 91.6668 217.927 89.9136 217.485 89.2046C217.199 88.7663 217.069 88.6631 216.809 88.6889C216.523 88.7276 216.484 88.7792 216.497 89.2432C216.588 91.5637 216.588 93.781 216.51 93.9228C216.445 94.013 216.133 94.0775 215.756 94.0775C215.405 94.0775 214.521 94.1677 213.806 94.2708C212.194 94.5158 211.999 94.4642 211.999 93.8841C211.999 93.5618 212.09 93.3813 212.324 93.2137C213.884 92.118 213.858 92.1567 213.767 91.5766C213.676 91.0609 213.429 90.223 213.091 89.3077C213 89.0628 212.896 88.7018 212.857 88.5084C212.701 87.7994 212.259 87.6576 211.713 88.1217C211.583 88.2248 211.466 88.2893 211.466 88.2635C211.453 88.2377 211.375 87.5803 211.297 86.8068C211.167 85.6595 211.18 85.3759 211.31 85.2598C211.856 84.8215 211.869 84.7829 211.869 83.6871C211.869 82.9265 211.921 82.5785 212.038 82.5527C212.116 82.5269 212.922 82.4496 213.793 82.3851C215.717 82.2562 215.717 82.2562 215.678 83.5195C215.665 84.1383 215.704 84.4348 215.847 84.5508C215.951 84.6282 216.029 84.8344 216.029 85.0149C216.029 85.4532 216.38 86.2138 216.575 86.2138C216.718 86.2138 219.344 82.4624 219.552 81.9726C219.708 81.5858 220.501 81.5858 222.295 81.9468ZM180.929 82.0241C182.45 82.398 183.815 83.1715 184.738 84.1512C186.285 85.8013 186.779 87.2967 186.441 89.2819C186.246 90.4808 186.038 90.9965 185.271 92.1438C184.478 93.3427 183.802 93.8067 182.216 94.2579C180.89 94.6318 178.446 94.4642 176.899 93.8841C176.652 93.781 176.301 93.6778 176.119 93.6392C175.937 93.6005 175.664 93.4587 175.508 93.3427C175.261 93.1364 175.248 93.0462 175.339 92.4661C175.404 92.1051 175.456 91.5766 175.456 91.2801C175.469 90.932 175.599 90.5195 175.833 90.1198C176.457 89.037 176.652 88.1733 176.665 86.433C176.665 85.5306 176.73 84.6153 176.834 84.2801C177.029 83.6356 177.432 82.2304 177.497 81.9984C177.51 81.921 177.666 81.8179 177.835 81.7792C178.342 81.6761 180.045 81.805 180.929 82.0241ZM201.729 82.7203C202.873 82.9394 203.445 83.0941 203.666 83.2359C203.887 83.3777 203.874 84.886 203.653 85.1438C203.549 85.2727 203.081 85.2856 201.599 85.2212L199.688 85.1438L199.623 85.9946C199.506 87.4514 199.519 87.4771 200.676 87.5545C201.222 87.6061 201.872 87.6834 202.119 87.735L202.574 87.8252L202.613 88.6245C202.678 89.9007 202.613 89.9523 201.014 89.9523C199.766 89.9523 199.649 89.978 199.467 90.2359C199.22 90.5839 199.181 91.8215 199.428 91.9762C199.506 92.0278 200.377 92.1051 201.339 92.1438L203.094 92.2082L203.081 93.2782C203.055 94.6962 202.99 94.7607 201.729 94.5931C201.196 94.5287 200.299 94.4642 199.74 94.4642C198.336 94.4642 195.45 94.1032 195.333 93.9099C195.281 93.8196 195.255 93.6778 195.294 93.5876C195.333 93.4845 195.359 92.3758 195.359 91.1125V88.8049L196.256 87.9283C196.997 87.1806 197.179 86.9228 197.374 86.2783C197.699 85.1954 197.751 84.5637 197.569 83.8934C197.309 82.8879 197.27 82.5785 197.413 82.4882C197.608 82.3722 200.767 82.5398 201.729 82.7203ZM231.395 83.8934C231.46 84.5122 231.447 84.8989 231.356 84.9891C231.291 85.0536 230.472 85.1438 229.549 85.1825C228.639 85.2212 227.833 85.2856 227.781 85.3501C227.612 85.5177 227.599 87.4643 227.768 87.6834C227.911 87.8768 228.041 87.8768 229.289 87.7092C230.043 87.5932 230.693 87.5545 230.745 87.6061C230.914 87.7865 230.901 89.7073 230.719 89.8233C230.628 89.8749 230.056 89.9652 229.458 90.0167C228.041 90.1327 227.794 90.339 227.898 91.2543C227.95 91.6023 228.015 91.9504 228.054 92.0149C228.158 92.1824 229.835 92.1824 230.784 92.002C231.811 91.8086 231.928 91.9375 231.941 93.3298L231.954 94.3997L230.524 94.4771C229.744 94.5158 228.509 94.606 227.794 94.6705C227.079 94.7349 226.065 94.7865 225.532 94.7865C224.57 94.7865 224.557 94.7865 224.453 94.3997C224.297 93.8196 224.427 93.536 224.999 93.1751C225.662 92.7883 225.636 92.6852 224.7 91.2801L223.998 90.2359L223.92 88.083C223.803 85.1438 223.816 83.4809 223.946 83.2617C224.037 83.1199 224.492 83.0683 225.74 83.0168C226.65 82.991 227.43 82.9394 227.456 82.9136C227.495 82.875 228.366 82.875 229.406 82.8879L231.304 82.9265L231.395 83.8934ZM209.399 85.6337C209.503 85.7497 209.594 86.3814 209.633 87.2451L209.698 88.6631H209.165C208.736 88.6631 208.58 88.5858 208.242 88.2119C207.865 87.7865 207.839 87.6834 207.839 86.8197C207.839 86.304 207.891 85.8271 207.943 85.7497C208.164 85.4145 209.152 85.3372 209.399 85.6337ZM193.292 92.35C193.253 94.5286 193.279 95.083 193.422 95.199C193.656 95.3795 195.632 95.6244 196.919 95.6244C197.452 95.6244 198.596 95.7146 199.454 95.8178C200.299 95.9209 201.313 96.0111 201.677 96.0111C202.275 96.0111 202.366 95.9725 202.405 95.7404C202.457 95.3666 202.834 95.1217 203.042 95.3279C203.276 95.56 203.055 95.7662 201.612 96.6944C199.909 97.7901 199.948 97.7644 198.999 98.2155C198.531 98.4347 197.946 98.7054 197.699 98.8343C196.698 99.3242 193.877 100.111 191.914 100.446C190.276 100.729 185.102 100.729 183.464 100.446C181.54 100.111 180.149 99.7625 178.784 99.2726C176.639 98.4863 173.48 96.7459 172.075 95.56C171.828 95.3537 171.256 94.8896 170.827 94.5287C170.385 94.1806 170.06 93.8454 170.086 93.7938C170.125 93.7423 170.398 93.6907 170.697 93.6907C171.087 93.6907 171.412 93.5747 171.828 93.304C172.153 93.0977 172.544 92.9172 172.7 92.9172C172.856 92.9172 173.025 92.8528 173.064 92.7883C173.285 92.4403 173.402 92.7239 173.363 93.4458C173.324 94.2322 173.324 94.245 173.779 94.5029C174.026 94.6447 174.416 94.7994 174.624 94.8638C174.845 94.9154 175.196 95.0185 175.404 95.083C176.756 95.5471 177.341 95.6244 179.07 95.6373C180.448 95.6373 181.033 95.5857 181.462 95.431C182.229 95.1474 183.906 94.3482 184.335 94.0517C184.517 93.9228 184.764 93.8196 184.868 93.8196C185.063 93.8196 185.102 93.9485 185.284 95.0056C185.388 95.6244 185.531 95.6631 187.585 95.5857C189.236 95.5213 190.224 95.315 190.64 94.9541C190.77 94.838 191.108 94.6447 191.394 94.5029L191.914 94.2708V89.8878L192.369 89.8491C192.616 89.8233 192.876 89.746 192.954 89.6815C193.292 89.3464 193.344 89.7202 193.292 92.35ZM167.473 93.4974C168.123 93.5231 168.695 93.5489 168.747 93.5489C168.812 93.5618 169.254 93.9357 169.722 94.374C171.893 96.4237 174.572 98.1769 177.289 99.3242C177.536 99.4402 177.913 99.6078 178.108 99.698C178.316 99.8012 178.563 99.8785 178.654 99.8785C178.758 99.8785 179.031 99.9559 179.265 100.059C180.838 100.729 185.115 101.425 187.624 101.425C190.224 101.425 194.189 100.794 196.178 100.059C197.569 99.5434 197.946 99.3886 199.129 98.8601C200.65 98.1769 203.484 96.269 204.758 95.0959C205.434 94.4771 205.603 94.4255 206.669 94.5673C207.137 94.6447 207.8 94.6447 208.164 94.5802C209.048 94.4384 209.399 94.4384 209.399 94.5931C209.399 94.7091 207.839 96.2948 206.708 97.3132C206.201 97.7772 204.238 99.2855 203.744 99.582C202.418 100.407 201.248 101.052 200.494 101.413C200 101.645 199.467 101.89 199.337 101.967C199.194 102.044 198.934 102.147 198.752 102.199C198.57 102.263 198.089 102.431 197.699 102.586C197.309 102.74 196.815 102.908 196.594 102.972C196.386 103.037 196.035 103.14 195.814 103.217C193.89 103.862 190.159 104.39 187.507 104.39C186.129 104.39 183.659 104.158 182.619 103.926C182.151 103.823 181.657 103.746 181.501 103.746C181.358 103.746 180.981 103.669 180.656 103.565C180.344 103.475 179.733 103.295 179.304 103.166C177.497 102.65 175.404 101.774 173.285 100.665C171.789 99.8785 168.786 97.6354 167.395 96.269C166.706 95.5857 165.068 93.6005 165.068 93.4329C165.068 93.3427 165.276 93.3169 165.692 93.3684C166.03 93.4071 166.836 93.4587 167.473 93.4974ZM204.628 94.1935C204.758 94.3224 203.835 95.1474 203.679 95.0443C203.614 95.0056 203.588 94.8123 203.601 94.6189C203.627 94.4255 203.653 94.1935 203.666 94.1032C203.679 93.9743 203.796 93.9485 204.108 94.013C204.329 94.0646 204.563 94.1419 204.628 94.1935Z" fill="black"/>
<path d="M183.685 69.3267C182.892 69.8939 182.489 70.59 182.489 71.4022C182.489 72.2272 182.736 72.6526 183.542 73.1683C185.102 74.1867 186.805 73.3359 187.117 71.4022C187.221 70.7576 186.831 69.9712 186.142 69.404C185.661 69.0044 185.492 68.9399 184.907 68.9399C184.348 68.9399 184.114 69.0173 183.685 69.3267ZM184.634 70.7834C185.219 71.3635 185.31 71.776 184.998 72.3819C184.803 72.8073 184.712 72.8718 184.387 72.8331C183.516 72.7429 182.996 71.9307 183.217 70.9639C183.373 70.2162 183.984 70.1388 184.634 70.7834ZM204.55 69.1591C204.42 69.2751 204.433 69.7392 204.589 70.3838C204.654 70.6932 204.81 71.4022 204.927 71.9694C205.213 73.3487 205.317 73.5808 205.616 73.5808C206.045 73.5808 206.825 73.1812 207.358 72.6913C207.826 72.253 207.839 72.2143 207.839 71.299C207.839 70.4095 207.813 70.3322 207.397 69.8681C206.994 69.4298 206.864 69.3782 205.928 69.2236C204.758 69.0431 204.667 69.0431 204.55 69.1591ZM205.798 71.0928C205.941 71.3506 206.006 72.1241 205.889 72.2917C205.694 72.5882 205.499 72.2272 205.499 71.544C205.499 71.067 205.642 70.835 205.798 71.0928ZM194.124 72.2917C194.085 72.3561 193.942 72.4206 193.825 72.4206C193.37 72.4335 192.759 73.2456 192.551 74.1351C192.343 75.0375 193.019 76.1333 193.955 76.3911C194.592 76.5716 195.814 76.2751 196.256 75.8496C196.542 75.566 196.581 75.4113 196.581 74.509C196.594 73.6195 196.555 73.4261 196.256 72.9878C196.009 72.6139 195.762 72.4206 195.385 72.3174C194.761 72.1241 194.228 72.1241 194.124 72.2917ZM194.293 73.8773C194.787 74.4058 194.787 75.9012 194.28 75.9012C193.942 75.9012 193.149 75.0117 193.149 74.6379C193.149 73.6968 193.747 73.2972 194.293 73.8773ZM167.968 85.8533C166.733 87.2197 167.006 88.8827 168.566 89.5273C169.06 89.7335 169.593 89.6433 170.503 89.205C171.036 88.9472 171.14 88.7667 171.179 88.019C171.257 86.7427 171.205 86.5365 170.698 86.0466C170.23 85.5825 170.204 85.5696 169.229 85.5696C168.358 85.5696 168.202 85.6083 167.968 85.8533ZM169.177 87.426C169.294 87.7612 169.281 88.728 169.164 88.9085C169.021 89.1534 168.761 89.0632 168.28 88.5991C167.773 88.1092 167.656 87.6065 167.968 87.2197C168.306 86.7943 169.008 86.9103 169.177 87.426ZM157.321 84.0098C156.372 84.693 156.294 84.8477 156.294 85.9564C156.294 87.0264 156.489 87.4904 157.074 87.8127C157.217 87.8901 157.529 88.1092 157.763 88.3026C158.244 88.7151 158.348 88.728 158.595 88.496C158.686 88.4057 159.063 88.2252 159.414 88.0963C160.298 87.774 160.597 87.4647 160.779 86.7041C161.039 85.6341 160.571 84.4481 159.661 83.8809C159.011 83.4942 157.958 83.5457 157.321 84.0098ZM190.653 82.9527C190.289 83.043 190.25 83.4555 190.484 84.7446L190.705 85.9564H191.186C191.524 85.9564 191.797 85.8404 192.148 85.5568C192.564 85.2216 192.629 85.0927 192.629 84.6415C192.629 83.868 192.226 83.3137 191.498 83.0687C191.16 82.9527 190.887 82.8754 190.887 82.8754C190.874 82.8883 190.77 82.9141 190.653 82.9527ZM235.985 83.0172C235.855 83.4426 235.569 85.763 235.621 85.9693C235.725 86.3173 235.998 86.356 236.908 86.1369C237.571 85.9693 237.792 85.8533 237.87 85.6341C237.935 85.4665 238.052 85.2989 238.117 85.2474C238.195 85.2087 238.26 84.8606 238.26 84.4997C238.247 83.8035 238.091 83.507 237.48 83.0816C237.103 82.8238 236.063 82.7851 235.985 83.0172ZM180.721 85.2474C180.63 85.4923 180.539 85.9177 180.539 86.2013C180.539 86.4849 180.448 87.1037 180.331 87.5807C180.227 88.0577 180.149 88.6507 180.175 88.9085L180.214 89.3726L181.02 89.4112C182.333 89.4757 183.087 88.9729 183.399 87.8514C183.607 87.0779 183.425 86.4076 182.801 85.7759C182.359 85.3247 181.449 84.7962 181.111 84.7962C181.007 84.7962 180.825 85.0024 180.721 85.2474ZM181.527 88.0705C181.332 89.0245 180.851 88.9085 180.916 87.9287C180.968 87.1166 181.046 87.0135 181.345 87.3873C181.527 87.5936 181.579 87.7998 181.527 88.0705Z" fill="black"/>
</svg>
