<svg width="372" height="152" viewBox="0 0 372 152" fill="none" xmlns="http://www.w3.org/2000/svg">
<path fill-rule="evenodd" clip-rule="evenodd" d="M164.024 47.2427C164.495 47.8203 165.275 47.9893 165.239 48.734L163.359 50.7342C157.68 57.8861 153.912 66.2492 152.127 75.5667L151.477 81.7045C150.379 83.702 147.808 82.8605 146.168 83.702C139.163 83.7182 136.78 75.6796 132.819 71.2184C131.788 69.6584 130.644 67.9104 129.942 66.1651C127.971 71.372 126.026 76.7579 124.534 82.0579C123.05 82.254 121.401 81.5111 120.161 81.0728C112.595 78.4345 111.523 69.7416 109.81 63.3136C109.245 58.1943 107.678 53.3218 106.612 48.3255C106.585 47.7507 105.53 47.2436 106.252 46.7041C109.3 45.9665 113.139 45.7071 115.963 47.4985C117.899 50.5616 117.142 54.354 118.3 57.6439C118.868 59.8149 119.44 61.9434 120.372 64.0213C122.516 60.1086 124.219 55.754 126.372 51.7546L126.273 51.4356C127.115 51.4356 126.476 50.3564 127.184 49.947C128.134 48.5063 128.797 46.8586 130.491 45.9358C133.815 45.9313 136.181 48.2903 139.035 49.3812C137.98 54.7282 137.32 59.2789 138.854 64.456C139.247 65.7729 139.725 67.5389 141.129 68.0821C143.942 59.5311 149.332 48.2604 157.978 44.0595C160.6 43.585 162.065 46.0696 164.024 47.2427ZM265.789 59.0719C266.219 59.5193 265.895 60.1683 265.666 60.6446C260.808 66.7517 256.388 73.0884 253.059 79.886C250.331 87.3986 247.208 94.7701 244.917 102.51C244.361 103.723 244.261 105.856 244.261 107.115C242.882 108.044 241.789 108.219 240.257 107.746C238.811 107.32 236.854 106.192 236.179 104.82C236.044 102.979 237.351 101.739 237.785 100.129C239.451 94.7376 244.496 89.9383 242.613 83.636C240.081 78.59 238.354 73.0794 235.956 68.036C235.3 65.8759 234.068 63.4609 234.966 61.1851C236.534 60.0381 239.148 59.5275 240.798 60.6157C242.606 62.5381 242.368 65.2469 243.196 67.585C244.204 71.7661 245.301 75.8622 247.021 79.7523C247.958 75.3968 250.159 71.6369 251.009 67.2353C252.133 64.3277 252.562 61.0097 255.124 58.8351C256.659 57.8816 258.202 57.5535 259.815 58.0642C261.791 58.4131 263.72 58.8939 265.789 59.0719Z" fill="#236AB3"/>
<path fill-rule="evenodd" clip-rule="evenodd" d="M178.369 60.1453C176.298 59.1393 174.314 57.9138 172.11 57.1699C169.245 56.5571 165.453 55.1562 162.809 57.1699C157.651 62.2024 154.698 69.6426 157.386 76.7322C158.929 80.5834 162.764 82.5528 166.599 83.341C171.36 84.6099 175.371 81.8966 178.766 79.2268C180.308 76.9076 181.808 74.6751 182.38 71.8751C183.174 67.76 182.426 62.5522 178.369 60.1453ZM173.08 70.8239C172.374 72.6623 171.669 74.8938 169.553 75.7687C168.054 76.1194 166.115 76.4683 164.616 75.9007C161.751 73.2308 163.602 68.8988 164.395 65.9225C165.189 64.1284 165.63 62.2024 166.908 60.6704C167.835 60.0142 168.407 58.9197 169.686 59.4882C170.877 59.5759 171.537 60.8449 172.33 61.5896C173.652 64.2152 173.3 67.9353 173.08 70.8239ZM208.741 62.5965C204.818 58.2635 198.822 58.0448 193.268 57.1699C191.461 57.7827 188.904 56.9946 187.891 59.1393C185.423 63.559 183.527 68.1983 183.571 73.624C184.319 77.7825 187.407 82.2012 191.682 83.4277C193.797 84.2149 196.62 84.2149 198.471 82.9903C200.676 82.5537 202.349 80.4948 204.157 79.3144C206.625 76.2948 208.696 72.7066 209.271 68.7235C209.403 66.6664 209.535 64.3905 208.741 62.5965ZM200.676 71.1294C199.219 74.1491 196.575 77.4752 192.96 77.7382C192.21 77.8258 191.594 77.6505 191.064 77.213C189.3 74.4564 191.154 71.1303 191.902 68.3728C193.312 66.1846 193.622 63.3837 196.045 61.6773C197.853 61.1955 199.308 62.3334 200.146 63.559C200.983 65.7029 201.776 68.6349 200.676 71.1294ZM233.636 79.037C234.285 71.4015 232.776 64.5785 233.101 57.2766C232.53 53.6992 234.998 48.5204 233.784 45.4808C231.652 43.9732 228.777 44.4785 226.015 44.6113C224.753 45.1184 226.126 45.9309 225.905 46.7968C225.882 50.7392 226.136 60.5674 225.998 61.5679C225.868 61.5173 224.761 61.6384 224.683 61.4585C223.401 60.8105 219.48 59.6003 217.805 61.3139C212.797 63.5156 210.801 68.897 209.322 73.7306C208.966 77.2618 211.398 80.6476 214.544 82.1624C218.861 84.0866 222.956 82.5365 226.315 79.8124C227.193 79.9001 226.594 81.2721 227.138 81.8686C227.769 83.3455 229.183 84.2041 230.726 84.2375C231.883 84.0324 233.158 84.1399 234.158 83.5769C233.625 82.0051 234.14 80.4216 233.636 79.037ZM226.056 73.8065C225.05 76.2161 222.452 77.7544 219.808 77.8484C218.749 77.7201 217.383 77.4164 217.159 76.1483C216.228 73.9629 216.178 71.1583 217.099 69.1871C218.502 66.6456 221.011 64.8885 223.744 64.7936L225.376 66.0626C225.779 68.4677 226.448 71.2234 226.056 73.8065Z" fill="#236AB3"/>
<path fill-rule="evenodd" clip-rule="evenodd" d="M118.498 98.713H122.358C123.9 98.713 124.735 98.4716 124.735 96.7002C124.735 95.7954 124.55 95.1501 123.474 95.0823V95.0055C124.435 94.8509 124.619 94.2544 124.619 93.3398C124.619 91.7608 123.765 91.4905 122.32 91.4905H118.498V98.713ZM120.438 93.0704H122.068C122.611 93.0894 122.679 93.253 122.679 93.6868C122.679 94.2653 122.514 94.3809 121.835 94.3809H120.438V93.0704ZM120.438 95.7177H121.941C122.572 95.7177 122.795 95.8045 122.795 96.4019C122.795 96.9885 122.533 97.134 121.903 97.134H120.439L120.438 95.7177ZM135.614 91.4914H133.364L132.026 94.2743H131.957L130.657 91.4914H128.437L131.017 96.1805V98.713H132.957V96.1805L135.614 91.4914ZM145.67 93.7347C145.67 91.4426 144.331 91.4336 142.45 91.4336C140.316 91.4336 138.997 91.7897 138.997 94.1776V96.0449C138.997 98.3849 140.161 98.7708 142.45 98.7708C145.049 98.7708 145.67 98.3279 145.67 95.8903V94.6295H142.362V95.9672H143.7C143.7 96.9677 143.438 97.19 142.449 97.19C141.44 97.19 140.994 97.0563 140.994 95.7755V94.5997C141.013 93.4356 141.051 93.0117 142.449 93.0117C143.031 93.0117 143.661 93.0017 143.7 93.7338L145.67 93.7347ZM157.51 93.7347C157.51 91.4426 156.172 91.4336 154.29 91.4336C152.156 91.4336 150.837 91.7897 150.837 94.1776V96.0449C150.837 98.3849 152.001 98.7708 154.29 98.7708C156.889 98.7708 157.51 98.3279 157.51 95.8903V94.6295H154.203V95.9672H155.542C155.542 96.9677 155.28 97.19 154.29 97.19C153.281 97.19 152.835 97.0563 152.835 95.7755V94.5997C152.854 93.4356 152.894 93.0117 154.29 93.0117C154.872 93.0117 155.503 93.0017 155.542 93.7338L157.51 93.7347ZM169.011 91.4914H167.071V94.2065H164.54V91.4914H162.6V98.713H164.54V95.8822H167.071V98.713H169.011V91.4914ZM178.495 97.4711L178.874 98.713H180.852L178.64 91.4914H175.692L173.509 98.713H175.527L175.887 97.4711H178.495ZM178.107 96.0648H176.303L177.186 92.9357H177.205L178.107 96.0648ZM187.154 93.1662H187.231L189.287 98.713H192.596V91.4914H190.656L190.771 97.0373H190.693L188.609 91.4914H185.33V98.713H187.27L187.154 93.1662ZM197.888 98.713H201.837C203.865 98.713 204.503 97.7793 204.503 95.8045V94.2924C204.503 92.2416 203.602 91.4905 201.574 91.4905H197.888V98.713ZM199.827 93.1662H201.525C202.204 93.1662 202.505 93.3596 202.505 94.2924V95.8045C202.505 96.5655 202.243 97.0373 201.525 97.0373H199.827V93.1662ZM211.466 93.0704H214.772V91.4914H209.526V98.713H214.84V97.134H211.466V95.7276H214.568V94.39H211.466V93.0704ZM221.986 91.4914H220.046V98.713H225.021V97.0373H221.986V91.4914Z" fill="black"/>
</svg>
